<svg version="1.2" xmlns="http://www.w3.org/2000/svg" viewBox="0 0 4088 3925" width="521" height="500"><style>.a{fill:#1b333f}</style><path class="a" d="m1842 629c0 0.6-2.7 1-6 1-3.3 0-6 0.3-6 0.8 0 0.4-2.6 1-5.7 1.4-3.2 0.4-6 1.2-6.3 1.8-0.2 0.5-1.3 1-2.2 1-1 0-1.8 0.5-1.8 1 0 0.5-0.9 1-2 1-1.1 0-2 0.5-2 1 0 0.5-0.9 1-2 1-1.1 0-2 0.7-2 1.5 0 0.8-0.9 1.5-2 1.5-1.1 0-2 0.5-2 1 0 0.5-0.9 1-2 1-1.5 0-2 0.7-2 2.5 0 1.8-0.5 2.5-2 2.5-1.5 0-2 0.7-2 2.5 0 1.8-0.5 2.5-2 2.5q-2 0-2 2 0 2-2 2c-1.6 0-2 0.7-2 3.5 0 2.8-0.4 3.5-2 3.5-1.5 0-2 0.7-2 2.5 0 1.8-0.5 2.5-2 2.5-1.5 0-2 0.7-2 2.5 0 1.8-0.5 2.5-2 2.5-1.6 0-2 0.7-2 3.5 0 2.8-0.4 3.5-2 3.5-1.7 0-2 0.7-2 4.5 0 3.8-0.3 4.5-2 4.5-1.5 0-2 0.7-2 2.5 0 1.8-0.5 2.5-2 2.5-1.6 0-2 0.7-2 3.5 0 2.8-0.4 3.5-2 3.5-1.8 0-2 0.7-2 5.5 0 4.8-0.2 5.5-2 5.5-1.5 0-2 0.7-2 2.5 0 1.8-0.5 2.5-2 2.5-1.6 0-2 0.7-2 3.5 0 2.8-0.4 3.5-2 3.5-1.6 0-2 0.7-2 3.5 0 2.8-0.4 3.5-2 3.5-1.8 0-2 0.7-2 5.5 0 4.8-0.2 5.5-2 5.5-1.6 0-2 0.7-2 3.5 0 2.8-0.4 3.5-2 3.5-1.6 0-2 0.7-2 3.5 0 2.8-0.4 3.5-2 3.5-1.7 0-2 0.7-2 5 0 4.3-0.3 5-2 5-1.5 0-2 0.7-2 2.5 0 1.8-0.5 2.5-2 2.5-1.6 0-2 0.7-2 3.5 0 2.8-0.4 3.5-2 3.5-1.6 0-2 0.7-2 3.5 0 2.8-0.4 3.5-2 3.5-1.7 0-2 0.7-2 4.5 0 3.8-0.3 4.5-2 4.5-1.6 0-2 0.7-2 3.5 0 2.8-0.4 3.5-2 3.5-1.5 0-2 0.7-2 2.5 0 1.8-0.5 2.5-2 2.5-1.6 0-2 0.7-2 3.5 0 2.8-0.4 3.5-2 3.5-1.6 0-2 0.7-2 3.5 0 2.8-0.4 3.5-2 3.5-1.6 0-2 0.7-2 3 0 2.3-0.4 3-2 3-1.5 0-2 0.7-2 2.5 0 1.8-0.5 2.5-2 2.5-1.7 0-2 0.7-2 4.5 0 3.8-0.3 4.5-2 4.5-1.6 0-2 0.7-2 3.5 0 2.8-0.4 3.5-2 3.5-1.5 0-2 0.7-2 2.5 0 1.8-0.5 2.5-2 2.5-1.7 0-2 0.7-2 5 0 4.3-0.3 5-2 5-1.6 0-2 0.7-2 3 0 2.3-0.4 3-2 3-1.6 0-2 0.7-2 3.5 0 2.8-0.4 3.5-2 3.5-1.5 0-2 0.7-2 2.5 0 1.8-0.5 2.5-2 2.5-1.7 0-2 0.7-2 5 0 4.3-0.3 5-2 5-1.6 0-2 0.7-2 3 0 2.3-0.4 3-2 3-1.6 0-2 0.7-2 3.5 0 2.8-0.4 3.5-2 3.5-1.6 0-2 0.7-2 3.5 0 2.8-0.4 3.5-2 3.5-1.6 0-2 0.7-2 3.5 0 2.8-0.4 3.5-2 3.5-1.1 0-2 0.7-2 1.5 0 0.8-0.9 1.5-2 1.5-1.5 0-2 0.7-2 2.5 0 1.8-0.5 2.5-2 2.5-1.7 0-2 0.7-2 4.5 0 3.8-0.3 4.5-2 4.5-1.6 0-2 0.7-2 3.5 0 2.8-0.4 3.5-2 3.5-1.6 0-2 0.7-2 3.5 0 2.8-0.4 3.5-2 3.5-1.7 0-2 0.7-2 4.5 0 3.8-0.3 4.5-2 4.5-1.7 0-2 0.7-2 4.5 0 3.8-0.3 4.5-2 4.5-1.6 0-2 0.7-2 3.5 0 2.8-0.4 3.5-2 3.5-1.6 0-2 0.7-2 3.5 0 2.8-0.4 3.5-2 3.5-1.8 0-2 0.7-2 6 0 5.3-0.2 6-2 6-1.7 0-2 0.7-2 5 0 4.3-0.3 5-2 5-1.7 0-2 0.7-2 4.5 0 3.8-0.3 4.5-2 4.5-1.9 0-2 0.7-2 16 0 15.3 0.1 16 2 16 1.6 0 2 0.7 2 3.5 0 2.8 0.4 3.5 2 3.5 1.6 0 2 0.7 2 3.5 0 2.8 0.4 3.5 2 3.5 1.7 0 2 0.7 2 5 0 4.3 0.3 5 2 5 1.5 0 2 0.7 2 2.5 0 1.8 0.5 2.5 2 2.5 1.6 0 2 0.7 2 3.5 0 2.8 0.4 3.5 2 3.5 1.6 0 2 0.7 2 3 0 2.3 0.4 3 2 3 1.7 0 2 0.7 2 4 0 3.3 0.3 4 2 4 1.6 0 2 0.7 2 3 0 2.3 0.4 3 2 3 1.5 0 2 0.7 2 2.5 0 1.8 0.5 2.5 2 2.5 1.6 0 2 0.7 2 3.5 0 2.8 0.4 3.5 2 3.5 1.5 0 2 0.7 2 2.5 0 1.8 0.5 2.5 2 2.5 1.5 0 2 0.7 2 2.5 0 1.8 0.5 2.5 2 2.5 1.6 0 2 0.7 2 3 0 2.3 0.4 3 2 3 1.7 0 2 0.7 2 4 0 3.3 0.3 4 2 4 1.6 0 2 0.7 2 3 0 2.3 0.4 3 2 3 1.6 0 2 0.7 2 3.5 0 2.8 0.4 3.5 2 3.5 1.6 0 2 0.7 2 3.5 0 2.8 0.4 3.5 2 3.5 1.6 0 2 0.7 2 3.5 0 2.8 0.4 3.5 2 3.5 1.5 0 2 0.7 2 2.5 0 1.8 0.5 2.5 2 2.5 1.5 0 2 0.7 2 2.5 0 1.8 0.5 2.5 2 2.5 1.7 0 2 0.7 2 4.5 0 3.8 0.3 4.5 2 4.5 1.6 0 2 0.7 2 3.5 0 2.8 0.4 3.5 2 3.5 1.5 0 2 0.7 2 2.5 0 1.8 0.5 2.5 2 2.5 1.8 0 2 0.7 2 5.5 0 4.8 0.2 5.5 2 5.5 1.5 0 2 0.7 2 2.5 0 1.8 0.5 2.5 2 2.5 1.6 0 2 0.7 2 3.5 0 2.8 0.4 3.5 2 3.5 1.5 0 2 0.7 2 2.5 0 1.8 0.5 2.5 2 2.5 1.8 0 2 0.7 2 5.5 0 4.8 0.2 5.5 2 5.5 1.5 0 2 0.7 2 2.5 0 1.8 0.5 2.5 2 2.5 1.6 0 2 0.7 2 3.5 0 2.8 0.4 3.5 2 3.5 1.7 0 2 0.7 2 4.5 0 3.8 0.3 4.5 2 4.5 1.5 0 2 0.7 2 2.5 0 1.8 0.5 2.5 2 2.5 1.5 0 2 0.7 2 2.5 0 1.8 0.5 2.5 2 2.5 1.5 0 2 0.7 2 2.5 0 1.8 0.5 2.5 2 2.5 1.7 0 2 0.7 2 4.5 0 3.8 0.3 4.5 2 4.5 1.5 0 2 0.7 2 2.5 0 1.8 0.5 2.5 2 2.5 1.6 0 2 0.7 2 3.5 0 2.8 0.4 3.5 2 3.5 1.7 0 2 0.7 2 4.5 0 3.8 0.3 4.5 2 4.5 1.6 0 2 0.7 2 3.5 0 2.8 0.4 3.5 2 3.5 1.5 0 2 0.7 2 2.5 0 1.8 0.5 2.5 2 2.5 1.6 0 2 0.7 2 3.5 0 2.8 0.4 3.5 2 3.5 1.6 0 2 0.7 2 3.5 0 2.8 0.4 3.5 2 3.5 1.6 0 2 0.7 2 3 0 2.3 0.4 3 2 3 1.5 0 2 0.7 2 2.5 0 1.8 0.5 2.5 2 2.5 1.6 0 2 0.7 2 3.5 0 2.8 0.4 3.5 2 3.5 1.5 0 2 0.7 2 2.5 0 1.8 0.5 2.5 2 2.5 1.5 0 2 0.7 2 2.5 0 1.8 0.5 2.5 2 2.5 1.6 0 2 0.7 2 3 0 2.3 0.4 3 2 3 1.6 0 2 0.7 2 3.5 0 2.8 0.4 3.5 2 3.5 1.5 0 2 0.7 2 2.5 0 1.8 0.5 2.5 2 2.5 1.5 0 2 0.7 2 2.5 0 1.8 0.5 2.5 2 2.5 1.6 0 2 0.7 2 3.5 0 2.8 0.4 3.5 2 3.5 1.5 0 2 0.7 2 2.5 0 1.8 0.5 2.5 2 2.5q2 0 2 2c0 1.9 0.7 2 20 2 12.7 0 20-0.4 20-1 0-0.7 42-1 124-1 82 0 124-0.3 124-1 0-0.7 30-1 88-1 77.6 0 88-0.2 88-1.5 0-0.8 0.9-1.5 2-1.5 1.7 0 2-0.7 2-4.5 0-3.8 0.3-4.5 2-4.5 1.5 0 2-0.7 2-2.5 0-1.8 0.5-2.5 2-2.5 1.6 0 2-0.7 2-3.5 0-2.8 0.4-3.5 2-3.5 1.5 0 2-0.7 2-2.5 0-1.8 0.5-2.5 2-2.5 1.7 0 2-0.7 2-4.5 0-3.8 0.3-4.5 2-4.5 1.5 0 2-0.7 2-2.5 0-1.8 0.5-2.5 2-2.5 1.6 0 2-0.7 2-3.5 0-2.8 0.4-3.5 2-3.5 1.7 0 2-0.7 2-4.5 0-3.8 0.3-4.5 2-4.5 1.5 0 2-0.7 2-2.5 0-1.8 0.5-2.5 2-2.5 1.6 0 2-0.7 2-3 0-2.3 0.4-3 2-3 1.6 0 2-0.7 2-3.5 0-2.8 0.4-3.5 2-3.5 1.7 0 2-0.7 2-4 0-3.3 0.3-4 2-4 1.6 0 2-0.7 2-3 0-2.3 0.4-3 2-3 1.6 0 2-0.7 2-3.5 0-2.8 0.4-3.5 2-3.5 1.7 0 2-0.7 2-4 0-3.3 0.3-4 2-4 1.6 0 2-0.7 2-3 0-2.3 0.4-3 2-3 1.5 0 2-0.7 2-2.5 0-1.8 0.5-2.5 2-2.5 1.6 0 2-0.7 2-3.5 0-2.8 0.4-3.5 2-3.5 1.7 0 2-0.7 2-4.5 0-3.8 0.3-4.5 2-4.5 1.5 0 2-0.7 2-2.5 0-1.8 0.5-2.5 2-2.5 1.5 0 2-0.7 2-2.5 0-1.8 0.5-2.5 2-2.5 1.7 0 2-0.7 2-4.5 0-3.8 0.3-4.5 2-4.5 1.6 0 2-0.7 2-3.5 0-2.8 0.4-3.5 2-3.5 1.5 0 2-0.7 2-2.5 0-1.8 0.5-2.5 2-2.5 1.5 0 2-0.7 2-2.5 0-1.8 0.5-2.5 2-2.5 1.7 0 2-0.7 2-4.5 0-3.8 0.3-4.5 2-4.5 1.6 0 2-0.7 2-3.5 0-2.8 0.4-3.5 2-3.5 1.5 0 2-0.7 2-2.5 0-1.8 0.5-2.5 2-2.5 1.7 0 2-0.7 2-4.5 0-3.8 0.3-4.5 2-4.5 1.5 0 2-0.7 2-2.5 0-1.8 0.5-2.5 2-2.5 1.6 0 2-0.7 2-3.5 0-2.8 0.4-3.5 2-3.5 1.6 0 2-0.7 2-3 0-2.3 0.4-3 2-3 1.7 0 2-0.7 2-4 0-3.3 0.3-4 2-4 1.6 0 2-0.7 2-3.5 0-2.8 0.4-3.5 2-3.5 1.6 0 2-0.7 2-3 0-2.3 0.4-3 2-3 1.7 0 2-0.7 2-4 0-3.3 0.3-4 2-4 1.6 0 2-0.7 2-3.5 0-2.8 0.4-3.5 2-3.5 1.6 0 2-0.7 2-3 0-2.3 0.4-3 2-3 1.5 0 2-0.7 2-2.5 0-1.8 0.5-2.5 2-2.5 1.7 0 2-0.7 2-5 0-4.3 0.3-5 2-5 1.6 0 2-0.7 2-3 0-2.3 0.4-3 2-3 1.5 0 2-0.7 2-2.5 0-1.8 0.5-2.5 2-2.5 1.7 0 2-0.7 2-5 0-4.3 0.3-5 2-5 1.6 0 2-0.7 2-3 0-2.3 0.4-3 2-3 1.6 0 2-0.7 2-3.5 0-2.8 0.4-3.5 2-3.5 1.5 0 2-0.7 2-2.5 0-1.8 0.5-2.5 2-2.5 1.7 0 2-0.7 2-5 0-4.3 0.3-5 2-5 1.6 0 2-0.7 2-3 0-2.3 0.4-3 2-3 1.6 0 2-0.7 2-3.5 0-2.8 0.4-3.5 2-3.5 1.7 0 2-0.7 2-5 0-4.3 0.3-5 2-5 1.5 0 2-0.7 2-2.5 0-1.8 0.5-2.5 2-2.5 1.6 0 2-0.7 2-3.5 0-2.8 0.4-3.5 2-3.5 1.6 0 2-0.7 2-3.5 0-2.8 0.4-3.5 2-3.5 1.9 0 2-0.7 2-13.5 0-12.8-0.1-13.5-2-13.5-1.7 0-2-0.7-2-4 0-3.3-0.3-4-2-4-1.7 0-2-0.7-2-4.5 0-3.8-0.3-4.5-2-4.5-1.6 0-2-0.7-2-3.5 0-2.8-0.4-3.5-2-3.5-1.8 0-2-0.7-2-5.5 0-4.8-0.2-5.5-2-5.5-1.6 0-2-0.7-2-3.5 0-2.8-0.4-3.5-2-3.5-1.5 0-2-0.7-2-2.5 0-1.8-0.5-2.5-2-2.5-1.7 0-2-0.7-2-5 0-4.3-0.3-5-2-5-1.6 0-2-0.7-2-3 0-2.3-0.4-3-2-3-1.6 0-2-0.7-2-3.5 0-2.8-0.4-3.5-2-3.5-1.5 0-2-0.7-2-2.5 0-1.8-0.5-2.5-2-2.5-1.7 0-2-0.7-2-4.5 0-3.8-0.3-4.5-2-4.5-1.5 0-2-0.7-2-2.5 0-1.8-0.5-2.5-2-2.5-1.5 0-2-0.7-2-2.5 0-1.8-0.5-2.5-2-2.5-1.7 0-2-0.7-2-4.5 0-3.8-0.3-4.5-2-4.5-1.5 0-2-0.7-2-2.5 0-1.8-0.5-2.5-2-2.5-1.6 0-2-0.7-2-3.5 0-2.8-0.4-3.5-2-3.5-1.5 0-2-0.7-2-2.5 0-1.8-0.5-2.5-2-2.5-1.8 0-2-0.7-2-5.5 0-4.8-0.2-5.5-2-5.5-1.6 0-2-0.7-2-3.5 0-2.8-0.4-3.5-2-3.5-1.6 0-2-0.7-2-3.5 0-2.8-0.4-3.5-2-3.5-1.7 0-2-0.7-2-4.5 0-3.8-0.3-4.5-2-4.5-1.5 0-2-0.7-2-2.5 0-1.8-0.5-2.5-2-2.5-1.6 0-2-0.7-2-3.5 0-2.8-0.4-3.5-2-3.5-1.5 0-2-0.7-2-2.5 0-1.8-0.5-2.5-2-2.5-1.7 0-2-0.7-2-4.5 0-3.8-0.3-4.5-2-4.5-1.6 0-2-0.7-2-3.5 0-2.8-0.4-3.5-2-3.5-1.5 0-2-0.7-2-2.5 0-1.8-0.5-2.5-2-2.5-1.7 0-2-0.7-2-4.5 0-3.8-0.3-4.5-2-4.5-1.5 0-2-0.7-2-2.5 0-1.8-0.5-2.5-2-2.5-1.6 0-2-0.7-2-3.5 0-2.8-0.4-3.5-2-3.5-1.5 0-2-0.7-2-2.5 0-1.8-0.5-2.5-2-2.5-1.7 0-2-0.7-2-4.5 0-3.8-0.3-4.5-2-4.5-1.5 0-2-0.7-2-2.5 0-1.8-0.5-2.5-2-2.5-1.6 0-2-0.7-2-3.5 0-2.8-0.4-3.5-2-3.5-1.7 0-2-0.7-2-4.5 0-3.8-0.3-4.5-2-4.5-1.5 0-2-0.7-2-2.5 0-1.8-0.5-2.5-2-2.5-1.6 0-2-0.7-2-3.5 0-2.8-0.4-3.5-2-3.5-1.6 0-2-0.7-2-3 0-2.3-0.4-3-2-3-1.7 0-2-0.7-2-4 0-3.3-0.3-4-2-4-1.6 0-2-0.7-2-3.5 0-2.8-0.4-3.5-2-3.5-1.6 0-2-0.7-2-3.5 0-2.8-0.4-3.5-2-3.5-1.7 0-2-0.7-2-4.5 0-3.8-0.3-4.5-2-4.5-1.6 0-2-0.7-2-3.5 0-2.8-0.4-3.5-2-3.5-1.6 0-2-0.7-2-3.5 0-2.8-0.4-3.5-2-3.5-1.6 0-2-0.7-2-3.5 0-2.8-0.4-3.5-2-3.5-1.6 0-2-0.7-2-3.5 0-2.8-0.4-3.5-2-3.5q-2 0-2-2 0-2-2-2c-1.5 0-2-0.7-2-2.5 0-1.8-0.5-2.5-2-2.5-1.6 0-2-0.7-2-3.5 0-2.8-0.4-3.5-2-3.5-1.1 0-2-0.7-2-1.5 0-0.8-0.9-1.5-2-1.5-1.6 0-2-0.7-2-3 0-2.3-0.4-3-2-3-1.1 0-2-0.7-2-1.5 0-1.1-1.1-1.5-4-1.5-2.2 0-4-0.5-4-1 0-0.6-10.7-1-30-1-19.3 0-30-0.4-30-1 0-0.7-22.3-1.2-64-1.5-41.7-0.3-64-0.8-64-1.5 0-0.6-10-1-28-1-18 0-28-0.4-28-1 0-0.6-8.7-1-24-1-13.2 0-24-0.3-24-0.8 0-0.4-18.8-1.1-41.7-1.5-23.2-0.5-41.9-1.3-42-1.8-0.2-0.5-5.7-0.9-12.3-0.9-7.3 0-12-0.4-12-1 0-0.6-5.3-1-14-1-8.7 0-14 0.4-14 1zm798.3 430.7c-16.7 0.2-26.3 0.7-26.3 1.3 0 0.5-1.8 1-4 1-2.2 0-4 0.5-4 1 0 0.5-0.9 1-2 1-1.1 0-2 0.5-2 1 0 0.5-1.8 1.2-4 1.5-3.2 0.4-4 0.9-4 2.5q0 2-2 2c-1.1 0-2 0.5-2 1 0 0.5-0.9 1-2 1-1.5 0-2 0.7-2 2.5 0 1.8-0.5 2.5-2 2.5-1.5 0-2 0.7-2 2.5 0 1.8-0.5 2.5-2 2.5-1.5 0-2 0.7-2 2.5 0 1.8-0.5 2.5-2 2.5-1.6 0-2 0.7-2 3.5 0 2.8-0.4 3.5-2 3.5-1.7 0-2 0.7-2 4.5 0 3.8-0.3 4.5-2 4.5-1.6 0-2 0.7-2 3.5 0 2.8-0.4 3.5-2 3.5-1.5 0-2 0.7-2 2.5 0 1.8-0.5 2.5-2 2.5-1.6 0-2 0.7-2 3.5 0 2.8-0.4 3.5-2 3.5-1.8 0-2 0.7-2 5.5 0 4.8-0.2 5.5-2 5.5-1.6 0-2 0.7-2 3.5 0 2.8-0.4 3.5-2 3.5-1.6 0-2 0.7-2 3.5 0 2.8-0.4 3.5-2 3.5-1.7 0-2 0.7-2 4.5 0 3.8-0.3 4.5-2 4.5-1.6 0-2 0.7-2 3.5 0 2.8-0.4 3.5-2 3.5-1.6 0-2 0.7-2 3.5 0 2.8-0.4 3.5-2 3.5-1.6 0-2 0.7-2 3.5 0 2.8-0.4 3.5-2 3.5-1.7 0-2 0.7-2 5 0 4.3-0.3 5-2 5-1.6 0-2 0.7-2 3.5 0 2.8-0.4 3.5-2 3.5-1.6 0-2 0.7-2 3.5 0 2.8-0.4 3.5-2 3.5-1.7 0-2 0.7-2 4.5 0 3.8-0.3 4.5-2 4.5-1.6 0-2 0.7-2 3.5 0 2.8-0.4 3.5-2 3.5-1.5 0-2 0.7-2 2.5 0 1.8-0.5 2.5-2 2.5-1.5 0-2 0.7-2 2.5 0 1.8-0.5 2.5-2 2.5-1.7 0-2 0.7-2 4.5 0 3.8-0.3 4.5-2 4.5-1.5 0-2 0.7-2 2.5 0 1.8-0.5 2.5-2 2.5-1.6 0-2 0.7-2 3.5 0 2.8-0.4 3.5-2 3.5-1.6 0-2 0.7-2 3.5 0 2.8-0.4 3.5-2 3.5-1.6 0-2 0.7-2 3 0 2.3-0.4 3-2 3-1.5 0-2 0.7-2 2.5 0 1.8-0.5 2.5-2 2.5-1.5 0-2 0.7-2 2.5 0 1.8-0.5 2.5-2 2.5-1.6 0-2 0.7-2 3.5 0 2.8-0.4 3.5-2 3.5-1.5 0-2 0.7-2 2.5 0 1.8-0.5 2.5-2 2.5-1.6 0-2 0.7-2 3 0 2.3-0.4 3-2 3-1.7 0-2 0.7-2 4 0 3.3-0.3 4-2 4-1.6 0-2 0.7-2 3.5 0 2.8-0.4 3.5-2 3.5-1.6 0-2 0.7-2 3 0 2.3-0.4 3-2 3-1.5 0-2 0.7-2 2.5 0 1.8-0.5 2.5-2 2.5-1.7 0-2 0.7-2 5 0 4.3-0.3 5-2 5-1.6 0-2 0.7-2 3.5 0 2.8-0.4 3.5-2 3.5-1.6 0-2 0.7-2 3 0 2.3-0.4 3-2 3-1.7 0-2 0.7-2 5 0 4.3-0.3 5-2 5-1.5 0-2 0.7-2 2.5 0 1.8-0.5 2.5-2 2.5-1.6 0-2 0.7-2 3.5 0 2.8-0.4 3.5-2 3.5-1.6 0-2 0.7-2 3.5 0 2.8-0.4 3.5-2 3.5-1.7 0-2 0.7-2 4.5 0 3.8-0.3 4.5-2 4.5-1.5 0-2 0.7-2 2.5 0 1.8-0.5 2.5-2 2.5-1.6 0-2 0.7-2 3.5 0 2.8-0.4 3.5-2 3.5-1.6 0-2 0.7-2 3.5 0 2.8-0.4 3.5-2 3.5-1.6 0-2 0.7-2 3 0 2.3-0.4 3-2 3-1.5 0-2 0.7-2 2.5 0 1.8-0.5 2.5-2 2.5-1.6 0-2 0.7-2 3.5 0 2.8-0.4 3.5-2 3.5-1.9 0-2 0.7-2 11.5 0 10.8-0.1 11.5-2 11.5-1.9 0-2 0.7-2 13 0 12.3 0.1 13 2 13 1.9 0 2 0.7 2 10.5 0 9.8 0.1 10.5 2 10.5 1.6 0 2 0.7 2 3.5 0 2.8 0.4 3.5 2 3.5 1.5 0 2 0.7 2 2.5 0 1.8 0.5 2.5 2 2.5 1.5 0 2 0.7 2 2.5 0 1.8 0.5 2.5 2 2.5 1.7 0 2 0.7 2 4.5 0 3.8 0.3 4.5 2 4.5 1.5 0 2 0.7 2 2.5 0 1.8 0.5 2.5 2 2.5q2 0 2 2 0 2 2 2c1.6 0 2 0.7 2 3.5 0 2.8 0.4 3.5 2 3.5 1.5 0 2 0.7 2 2.5 0 1.8 0.5 2.5 2 2.5 1.5 0 2 0.7 2 2.5 0 1.8 0.5 2.5 2 2.5 1.6 0 2 0.7 2 3 0 2.3 0.4 3 2 3 1.6 0 2 0.7 2 3.5 0 2.8 0.4 3.5 2 3.5 1.5 0 2 0.7 2 2.5 0 1.8 0.5 2.5 2 2.5 1.5 0 2 0.7 2 2.5 0 1.8 0.5 2.5 2 2.5 1.7 0 2 0.7 2 4.5 0 3.8 0.3 4.5 2 4.5 1.5 0 2 0.7 2 2.5 0 1.8 0.5 2.5 2 2.5 1.6 0 2 0.7 2 3.5 0 2.8 0.4 3.5 2 3.5 1.5 0 2 0.7 2 2.5 0 1.8 0.5 2.5 2 2.5 1.7 0 2 0.7 2 4.5 0 3.8 0.3 4.5 2 4.5 1.6 0 2 0.7 2 3.5 0 2.8 0.4 3.5 2 3.5 1.6 0 2 0.7 2 3.5 0 2.8 0.4 3.5 2 3.5 1.8 0 2 0.7 2 5.5 0 4.8 0.2 5.5 2 5.5 1.6 0 2 0.7 2 3.5 0 2.8 0.4 3.5 2 3.5 1.5 0 2 0.7 2 2.5 0 1.8 0.5 2.5 2 2.5 1.5 0 2 0.7 2 2.5 0 1.8 0.5 2.5 2 2.5 1.7 0 2 0.7 2 4.5 0 3.8 0.3 4.5 2 4.5 1.1 0 2 0.7 2 1.5 0 0.8 0.9 1.5 2 1.5q2 0 2 2c0 1.7 0.7 2 4 2 2.2 0 4-0.5 4-1 0-0.5 0.9-1 2-1 1.1 0 2-0.5 2-1 0-0.5 1.8-1.2 4-1.5 3.2-0.4 4-0.9 4-2.5q0-2 2-2c1.1 0 2-0.7 2-1.5 0-0.8 0.9-1.5 2-1.5 1.1 0 2-0.5 2-1 0-0.5 0.9-1 2-1q2 0 2-2c0-1.6 0.8-2.1 4-2.5 2.2-0.3 4-1 4-1.5 0-0.5 0.9-1 2-1q2 0 2-2 0-2 2-2c1.1 0 2-0.7 2-1.5 0-0.8 0.9-1.5 2-1.5 1.1 0 2-0.5 2-1 0-0.5 0.9-1 2-1 1.1 0 2-0.7 2-1.5 0-0.8 0.9-1.5 2-1.5q2 0 2-2 0-2 2-2c1.1 0 2-0.5 2-1 0-0.5 1.8-1.2 4-1.5 3.2-0.4 4-0.9 4-2.5q0-2 2-2c1.1 0 2-0.7 2-1.5 0-0.8 0.9-1.5 2-1.5 1.1 0 2-0.5 2-1 0-0.5 0.9-1 2-1q2 0 2-2 0-2 2-2c1.1 0 2-0.7 2-1.5 0-0.8 0.9-1.5 2-1.5 1.1 0 2-0.5 2-1 0-0.5 0.9-1 2-1 1.1 0 2-0.7 2-1.5 0-0.8 0.9-1.5 2-1.5 1.1 0 2-0.5 2-1 0-0.5 0.9-1 2-1q2 0 2-2 0-2 2-2c1.1 0 2-0.7 2-1.5 0-0.8 0.9-1.5 2-1.5 1.1 0 2-0.5 2-1 0-0.5 0.9-1 2-1 1.1 0 2-0.7 2-1.5 0-0.8 0.9-1.5 2-1.5q2 0 2-2 0-2 2-2c1.1 0 2-0.5 2-1 0-0.5 0.9-1 2-1 1.1 0 2-0.7 2-1.5 0-0.8 0.9-1.5 2-1.5q2 0 2-2c0-1.6 0.8-2.1 4-2.5 3.2-0.4 4-0.9 4-2.5q0-2 2-2c1.1 0 2-0.7 2-1.5 0-0.8 0.9-1.5 2-1.5 1.1 0 2-0.5 2-1 0-0.5 0.9-1 2-1q2 0 2-2c0-1.6 0.8-2.1 4-2.5 3.2-0.4 4-0.9 4-2.5q0-2 2-2c1.1 0 2-0.7 2-1.5 0-0.8 0.9-1.5 2-1.5 1.1 0 2-0.5 2-1 0-0.5 0.9-1 2-1q2 0 2-2 0-2 2-2c1.1 0 2-0.7 2-1.5 0-0.8 0.9-1.5 2-1.5 1.1 0 2-0.5 2-1 0-0.5 0.9-1 2-1 1.1 0 2-0.7 2-1.5 0-0.8 0.9-1.5 2-1.5q2 0 2-2 0-2 2-2c1.1 0 2-0.7 2-1.5 0-0.8 0.9-1.5 2-1.5 1.1 0 2-0.5 2-1 0-0.5 0.9-1 2-1q2 0 2-2 0-2 2-2c1.1 0 2-0.7 2-1.5 0-0.8 0.9-1.5 2-1.5 1.1 0 2-0.5 2-1 0-0.5 0.9-1 2-1 1.1 0 2-0.7 2-1.5 0-0.8 0.9-1.5 2-1.5q2 0 2-2 0-2 2-2c1.1 0 2-0.5 2-1 0-0.5 0.9-1 2-1 1.1 0 2-0.7 2-1.5 0-0.8 0.9-1.5 2-1.5q2 0 2-2 0-2 2-2c1.1 0 2-0.7 2-1.5 0-0.8 0.9-1.5 2-1.5 1.1 0 2-0.5 2-1 0-0.5 0.9-1 2-1 1.1 0 2-0.7 2-1.5 0-0.8 0.9-1.5 2-1.5q2 0 2-2 0-2 2-2c1.1 0 2-0.5 2-1 0-0.5 0.9-1 2-1 1.1 0 2-0.7 2-1.5 0-0.8 0.9-1.5 2-1.5q2 0 2-2 0-2 2-2c1.1 0 2-0.7 2-1.5 0-0.8 0.9-1.5 2-1.5 1.1 0 2-0.5 2-1 0-0.5 0.9-1 2-1 1.1 0 2-0.7 2-1.5 0-0.8 0.9-1.5 2-1.5q2 0 2-2 0-2 2-2c1.1 0 2-0.5 2-1 0-0.5 0.9-1 2-1 1.1 0 2-0.7 2-1.5 0-0.8 0.9-1.5 2-1.5q2 0 2-2 0-2 2-2c1.1 0 2-0.7 2-1.5 0-0.8 0.9-1.5 2-1.5 1.1 0 2-0.5 2-1 0-0.5 0.9-1 2-1 1.1 0 2-0.5 2-1 0-0.5 0.9-1 2-1 1.5 0 2-0.7 2-2.5 0-1.8 0.5-2.5 2-2.5 1.1 0 2-0.5 2-1 0-0.5 0.9-1 2-1 1.1 0 2-0.7 2-1.5 0-0.8 0.9-1.5 2-1.5q2 0 2-2c0-1.6 0.8-2.1 4-2.5 3.2-0.4 4-0.9 4-2.5q0-2 2-2c1.1 0 2-0.5 2-1 0-0.5 0.9-1 2-1 1.5 0 2-0.7 2-2.5 0-1.8 0.5-2.5 2-2.5 1.1 0 2-0.5 2-1 0-0.5 0.9-1 2-1 1.1 0 2-0.7 2-1.5 0-0.8 0.9-1.5 2-1.5q2 0 2-2c0-1.6 0.8-2.1 4-2.5 3.2-0.4 4-0.9 4-2.5q0-2 2-2c1.1 0 2-0.5 2-1 0-0.5 0.9-1 2-1 1.5 0 2-0.7 2-2.5 0-1.8 0.5-2.5 2-2.5 1.1 0 2-0.5 2-1 0-0.5 0.9-1 2-1 1.1 0 2-0.7 2-1.5 0-0.8 0.9-1.5 2-1.5q2 0 2-2c0-1.6 0.8-2.1 4-2.5 3.2-0.4 4-0.9 4-2.5q0-2 2-2c1.1 0 2-0.5 2-1 0-0.5 0.9-1 2-1 1.1 0 2-0.7 2-1.5 0-0.8 0.9-1.5 2-1.5q2 0 2-2c0-1.6 0.8-2.1 4-2.5 3.7-0.5 4-0.7 4-3.5 0-2.7 0.3-3 4-3.5 2.2-0.3 4-1 4-1.5 0-0.5 0.9-1 2-1q2 0 2-2 0-2 2-2c1.1 0 2-0.7 2-1.5 0-0.8 0.9-1.5 2-1.5q2 0 2-2c0-1.6 0.8-2.1 4-2.5 3.2-0.4 4-0.9 4-2.5q0-2 2-2c1.1 0 2-0.7 2-1.5 0-0.8 0.9-1.5 2-1.5 1.1 0 2-0.5 2-1 0-0.5 0.9-1 2-1q2 0 2-2 0-2 2-2c1.1 0 2-0.7 2-1.5 0-0.8 0.9-1.5 2-1.5 1.1 0 2-0.5 2-1 0-0.5 0.9-1 2-1 1.1 0 2-0.7 2-1.5 0-0.8 0.9-1.5 2-1.5q2 0 2-2 0-2 2-2c1.1 0 2-0.5 2-1 0-0.5 0.9-1 2-1 1.1 0 2-0.7 2-1.5 0-0.8 0.9-1.5 2-1.5 1.1 0 2-0.5 2-1 0-0.5 0.9-1 2-1 1.1 0 2-0.7 2-1.5 0-0.8 0.9-1.5 2-1.5q2 0 2-2 0-2 2-2c1.1 0 2-0.5 2-1 0-0.5 0.9-1 2-1 1.1 0 2-0.7 2-1.5 0-0.8 0.9-1.5 2-1.5 1.1 0 2-0.5 2-1 0-0.5 0.9-1 2-1 1.1 0 2-0.7 2-1.5 0-0.8 0.9-1.5 2-1.5 1.1 0 2-0.5 2-1 0-0.5 0.9-1 2-1q2 0 2-2c0-1.6 0.8-2.1 4-2.5 3.2-0.4 4-0.9 4-2.5q0-2 2-2c1.1 0 2-0.5 2-1 0-0.5 0.9-1 2-1 1.6 0 2 0.7 2 3.5 0 2.8-0.4 3.5-2 3.5-1.9 0-2 0.7-2 10.5 0 9.8-0.1 10.5-2 10.5-1.7 0-2 0.7-2 4.5 0 3.8 0.3 4.5 2 4.5 1.9 0 2 0.7 2 13 0 12.3-0.1 13-2 13-1.8 0-2 0.7-2 6.5 0 5.8-0.2 6.5-2 6.5-1.7 0-2 0.7-2 4 0 3.3-0.3 4-2 4-1.8 0-2 0.7-2 5.5 0 4.8-0.2 5.5-2 5.5-1.5 0-2 0.7-2 2.5 0 1.8-0.5 2.5-2 2.5-1.6 0-2 0.7-2 3.5 0 2.8-0.4 3.5-2 3.5-1.5 0-2 0.7-2 2.5 0 1.8-0.5 2.5-2 2.5-1.6 0-2 0.7-2 3.5 0 2.8-0.4 3.5-2 3.5-1.6 0-2 0.7-2 3 0 2.3-0.4 3-2 3-1.5 0-2 0.7-2 2.5 0 1.8-0.5 2.5-2 2.5-1.5 0-2 0.7-2 2.5 0 1.8-0.5 2.5-2 2.5-1.5 0-2 0.7-2 2.5 0 1.8-0.5 2.5-2 2.5q-2 0-2 2 0 2-2 2c-1.5 0-2 0.7-2 2.5 0 1.8-0.5 2.5-2 2.5-1.5 0-2 0.7-2 2.5 0 1.8-0.5 2.5-2 2.5-1.6 0-2 0.7-2 3 0 2.3-0.4 3-2 3-1.1 0-2 0.7-2 1.5 0 0.8-0.9 1.5-2 1.5-1.6 0-2 0.7-2 3.5 0 2.8-0.4 3.5-2 3.5-1.5 0-2 0.7-2 2.5 0 1.8-0.5 2.5-2 2.5-1.6 0-2 0.7-2 3 0 2.3-0.4 3-2 3-1.5 0-2 0.7-2 2.5 0 1.8-0.5 2.5-2 2.5-1.6 0-2 0.7-2 3.5 0 2.8-0.4 3.5-2 3.5-1.5 0-2 0.7-2 2.5 0 1.8-0.5 2.5-2 2.5-1.6 0-2 0.7-2 3.5 0 2.8-0.4 3.5-2 3.5-1.7 0-2 0.7-2 4.5 0 3.8-0.3 4.5-2 4.5-1.6 0-2 0.7-2 3.5 0 2.8-0.4 3.5-2 3.5-1.5 0-2 0.7-2 2.5 0 1.8-0.5 2.5-2 2.5-1.6 0-2 0.7-2 3.5 0 2.8-0.4 3.5-2 3.5-1.7 0-2 0.7-2 4.5 0 3.8-0.3 4.5-2 4.5-1.6 0-2 0.7-2 3.5 0 2.8-0.4 3.5-2 3.5-1.5 0-2 0.7-2 2.5 0 1.8-0.5 2.5-2 2.5-1.7 0-2 0.7-2 4.5 0 3.8-0.3 4.5-2 4.5-1.5 0-2 0.7-2 2.5 0 1.8-0.5 2.5-2 2.5-1.5 0-2 0.7-2 2.5 0 1.8-0.5 2.5-2 2.5-1.6 0-2 0.7-2 3.5 0 2.8-0.4 3.5-2 3.5-1.6 0-2 0.7-2 3.5 0 2.8-0.4 3.5-2 3.5-1.6 0-2 0.7-2 3 0 2.3-0.4 3-2 3-1.5 0-2 0.7-2 2.5 0 1.8-0.5 2.5-2 2.5-1.7 0-2 0.7-2 4.5 0 3.8-0.3 4.5-2 4.5-1.5 0-2 0.7-2 2.5 0 1.8-0.5 2.5-2 2.5-1.6 0-2 0.7-2 3.5 0 2.8-0.4 3.5-2 3.5-1.5 0-2 0.7-2 2.5 0 1.8-0.5 2.5-2 2.5-1.7 0-2 0.7-2 4.5 0 3.8-0.3 4.5-2 4.5-1.5 0-2 0.7-2 2.5 0 1.8-0.5 2.5-2 2.5-1.6 0-2 0.7-2 3.5 0 2.8-0.4 3.5-2 3.5-1.7 0-2 0.7-2 4.5 0 3.8-0.3 4.5-2 4.5-1.6 0-2 0.7-2 3.5 0 2.8-0.4 3.5-2 3.5-1.5 0-2 0.7-2 2.5 0 1.8-0.5 2.5-2 2.5-1.6 0-2 0.7-2 3.5 0 2.8-0.4 3.5-2 3.5-1.7 0-2 0.7-2 4.5 0 3.8-0.3 4.5-2 4.5-1.5 0-2 0.7-2 2.5 0 1.8-0.5 2.5-2 2.5-1.6 0-2 0.7-2 3.5 0 2.8-0.4 3.5-2 3.5-1.6 0-2 0.7-2 3.5 0 2.8-0.4 3.5-2 3.5-1.5 0-2 0.7-2 2.5 0 1.8-0.5 2.5-2 2.5-1.6 0-2 0.7-2 3.5 0 2.8-0.4 3.5-2 3.5-1.6 0-2 0.7-2 3 0 2.3-0.4 3-2 3-1.6 0-2 0.7-2 3.5 0 2.8-0.4 3.5-2 3.5-1.5 0-2 0.7-2 2.5 0 1.8-0.5 2.5-2 2.5-1.5 0-2 0.7-2 2.5 0 1.8-0.5 2.5-2 2.5-1.6 0-2 0.7-2 3.5 0 2.8-0.4 3.5-2 3.5-1.5 0-2 0.7-2 2.5 0 1.8-0.5 2.5-2 2.5-1.6 0-2 0.7-2 3 0 2.3-0.4 3-2 3-1.5 0-2 0.7-2 2.5 0 1.8-0.5 2.5-2 2.5-1.6 0-2 0.7-2 3.5 0 2.8-0.4 3.5-2 3.5-1.1 0-2 0.7-2 1.5 0 0.8-0.9 1.5-2 1.5-1.6 0-2 0.7-2 3 0 2.3-0.4 3-2 3-1.6 0-2 0.7-2 3.5 0 2.8-0.4 3.5-2 3.5-1.5 0-2 0.7-2 2.5 0 1.8-0.5 2.5-2 2.5-1.5 0-2 0.7-2 2.5 0 1.8-0.5 2.5-2 2.5-1.5 0-2 0.7-2 2.5 0 1.8-0.5 2.5-2 2.5-1.7 0-2 0.7-2 4.5 0 3.8-0.3 4.5-2 4.5-1.8 0-2 0.7-2 8 0 7.3 0.2 8 2 8 1.1 0 2 0.7 2 1.5 0 0.8 0.9 1.5 2 1.5 1.1 0 2 0.5 2 1 0 0.5 1.8 1 4 1 2.2 0 4 0.5 4 1 0 0.6 2.7 1 6 1 4 0 6.1 0.4 6.3 1.3 0.3 0.9 32.1 1.1 155.8 0.9 97.7-0.2 155.5-0.6 155.7-1.2 0.1-0.6 1.1-1 2.2-1 1.6 0 2-0.7 2-3.5 0-2.8 0.4-3.5 2-3.5 1.5 0 2-0.7 2-2.5 0-1.8 0.5-2.5 2-2.5 1.6 0 2-0.7 2-3.5 0-2.8 0.4-3.5 2-3.5 1.7 0 2-0.7 2-4.5 0-3.8 0.3-4.5 2-4.5 1.5 0 2-0.7 2-2.5 0-1.8 0.5-2.5 2-2.5 1.6 0 2-0.7 2-3.5 0-2.8 0.4-3.5 2-3.5 1.7 0 2-0.7 2-4.5 0-3.8 0.3-4.5 2-4.5 1.5 0 2-0.7 2-2.5 0-1.8 0.5-2.5 2-2.5 1.6 0 2-0.7 2-3.5 0-2.8 0.4-3.5 2-3.5 1.6 0 2-0.7 2-3 0-2.3 0.4-3 2-3 1.7 0 2-0.7 2-4 0-3.3 0.3-4 2-4 1.6 0 2-0.7 2-3.5 0-2.8 0.4-3.5 2-3.5 1.6 0 2-0.7 2-3 0-2.3 0.4-3 2-3 1.7 0 2-0.7 2-4 0-3.3 0.3-4 2-4 1.6 0 2-0.7 2-3 0-2.3 0.4-3 2-3 1.6 0 2-0.7 2-3.5 0-2.8 0.4-3.5 2-3.5 1.5 0 2-0.7 2-2.5 0-1.8 0.5-2.5 2-2.5 1.7 0 2-0.7 2-4.5 0-3.8 0.3-4.5 2-4.5 1.6 0 2-0.7 2-3.5 0-2.8 0.4-3.5 2-3.5 1.5 0 2-0.7 2-2.5 0-1.8 0.5-2.5 2-2.5 1.7 0 2-0.7 2-4.5 0-3.8 0.3-4.5 2-4.5 1.6 0 2-0.7 2-3.5 0-2.8 0.4-3.5 2-3.5 1.5 0 2-0.7 2-2.5 0-1.8 0.5-2.5 2-2.5 1.5 0 2-0.7 2-2.5 0-1.8 0.5-2.5 2-2.5 1.7 0 2-0.7 2-4.5 0-3.8 0.3-4.5 2-4.5 1.6 0 2-0.7 2-3.5 0-2.8 0.4-3.5 2-3.5 1.5 0 2-0.7 2-2.5 0-1.8 0.5-2.5 2-2.5 1.7 0 2-0.7 2-4.5 0-3.8 0.3-4.5 2-4.5 1.6 0 2-0.7 2-3.5 0-2.8 0.4-3.5 2-3.5 1.5 0 2-0.7 2-2.5 0-1.8 0.5-2.5 2-2.5 1.6 0 2-0.7 2-3.5 0-2.8 0.4-3.5 2-3.5 1.7 0 2-0.7 2-4.5 0-3.8 0.3-4.5 2-4.5 1.5 0 2-0.7 2-2.5 0-1.8 0.5-2.5 2-2.5 1.6 0 2-0.7 2-3.5 0-2.8 0.4-3.5 2-3.5 1.7 0 2-0.7 2-4.5 0-3.8 0.3-4.5 2-4.5 1.5 0 2-0.7 2-2.5 0-1.8 0.5-2.5 2-2.5 1.6 0 2-0.7 2-3.5 0-2.8 0.4-3.5 2-3.5 1.5 0 2-0.7 2-2.5 0-1.8 0.5-2.5 2-2.5 1.7 0 2-0.7 2-4.5 0-3.8 0.3-4.5 2-4.5 1.6 0 2-0.7 2-3.5 0-2.8 0.4-3.5 2-3.5 1.5 0 2-0.7 2-2.5 0-1.8 0.5-2.5 2-2.5 1.7 0 2-0.7 2-4.5 0-3.8 0.3-4.5 2-4.5 1.5 0 2-0.7 2-2.5 0-1.8 0.5-2.5 2-2.5 1.6 0 2-0.7 2-3.5 0-2.8 0.4-3.5 2-3.5 1.6 0 2-0.7 2-3 0-2.3 0.4-3 2-3 1.7 0 2-0.7 2-4 0-3.3 0.3-4 2-4 1.6 0 2-0.7 2-3.5 0-2.8 0.4-3.5 2-3.5 1.6 0 2-0.7 2-3.5 0-2.8 0.4-3.5 2-3.5 1.7 0 2-0.7 2-4.5 0-3.8 0.3-4.5 2-4.5 1.6 0 2-0.7 2-3.5 0-2.8 0.4-3.5 2-3.5 1.5 0 2-0.7 2-2.5 0-1.8 0.5-2.5 2-2.5 1.6 0 2-0.7 2-3.5 0-2.8 0.4-3.5 2-3.5 1.8 0 2-0.7 2-5.5 0-4.8 0.2-5.5 2-5.5 1.6 0 2-0.7 2-3.5 0-2.8 0.4-3.5 2-3.5 1.6 0 2-0.7 2-3.5 0-2.8 0.4-3.5 2-3.5 1.8 0 2-0.7 2-8.5 0-7.8-0.2-8.5-2-8.5-1.7 0-2-0.7-2-4.5 0-3.8-0.3-4.5-2-4.5-1.6 0-2-0.7-2-3.5 0-2.8-0.4-3.5-2-3.5-1.7 0-2-0.7-2-4.5 0-3.8-0.3-4.5-2-4.5-1.6 0-2-0.7-2-3.5 0-2.8-0.4-3.5-2-3.5-1.5 0-2-0.7-2-2.5 0-1.8-0.5-2.5-2-2.5-1.6 0-2-0.7-2-3.5 0-2.8-0.4-3.5-2-3.5-1.7 0-2-0.7-2-4.5 0-3.8-0.3-4.5-2-4.5-1.5 0-2-0.7-2-2.5 0-1.8-0.5-2.5-2-2.5-1.5 0-2-0.7-2-2.5 0-1.8-0.5-2.5-2-2.5-1.7 0-2-0.7-2-4.5 0-3.8-0.3-4.5-2-4.5-1.5 0-2-0.7-2-2.5 0-1.8-0.5-2.5-2-2.5-1.6 0-2-0.7-2-3.5 0-2.8-0.4-3.5-2-3.5-1.6 0-2-0.7-2-3 0-2.3-0.4-3-2-3-1.7 0-2-0.7-2-4 0-3.3-0.3-4-2-4-1.6 0-2-0.7-2-3 0-2.3-0.4-3-2-3-1.5 0-2-0.7-2-2.5 0-1.8-0.5-2.5-2-2.5-1.7 0-2-0.7-2-4.5 0-3.8-0.3-4.5-2-4.5-1.5 0-2-0.7-2-2.5 0-1.8-0.5-2.5-2-2.5-1.6 0-2-0.7-2-3.5 0-2.8-0.4-3.5-2-3.5-1.5 0-2-0.7-2-2.5 0-1.8-0.5-2.5-2-2.5-1.7 0-2-0.7-2-4.5 0-3.8-0.3-4.5-2-4.5-1.6 0-2-0.7-2-3.5 0-2.8-0.4-3.5-2-3.5-1.6 0-2-0.7-2-3.5 0-2.8-0.4-3.5-2-3.5-1.7 0-2-0.7-2-5 0-4.3-0.3-5-2-5-1.6 0-2-0.7-2-3 0-2.3-0.4-3-2-3-1.5 0-2-0.7-2-2.5 0-1.8-0.5-2.5-2-2.5-1.5 0-2-0.7-2-2.5 0-1.8-0.5-2.5-2-2.5-1.6 0-2-0.7-2-3.5 0-2.8-0.4-3.5-2-3.5-1.5 0-2-0.7-2-2.5 0-1.8-0.5-2.5-2-2.5-1.6 0-2-0.7-2-3.5 0-2.8-0.4-3.5-2-3.5-1.7 0-2-0.7-2-4.5 0-3.8-0.3-4.5-2-4.5-1.5 0-2-0.7-2-2.5 0-1.8-0.5-2.5-2-2.5-1.6 0-2-0.7-2-3 0-2.3-0.4-3-2-3-1.6 0-2-0.7-2-3.5 0-2.8-0.4-3.5-2-3.5-1.7 0-2-0.7-2-4 0-3.3-0.3-4-2-4-1.6 0-2-0.7-2-3 0-2.3-0.4-3-2-3-1.6 0-2-0.7-2-3.5 0-2.8-0.4-3.5-2-3.5-1.7 0-2-0.7-2-4 0-3.3-0.3-4-2-4-1.6 0-2-0.7-2-3.5 0-2.8-0.4-3.5-2-3.5-1.6 0-2-0.7-2-3 0-2.3-0.4-3-2-3-1.6 0-2-0.7-2-3.5 0-2.8-0.4-3.5-2-3.5-1.7 0-2-0.7-2-4 0-3.3-0.3-4-2-4-1.6 0-2-0.7-2-3.5 0-2.8-0.4-3.5-2-3.5-1.6 0-2-0.7-2-3.5 0-2.8-0.4-3.5-2-3.5-1.8 0-2-0.7-2-5.5 0-4.8-0.2-5.5-2-5.5-1.5 0-2-0.7-2-2.5 0-1.8-0.5-2.5-2-2.5-1.6 0-2-0.7-2-3.5 0-2.8-0.4-3.5-2-3.5-1.5 0-2-0.7-2-2.5 0-1.8-0.5-2.5-2-2.5-1.6 0-2-0.7-2-3.5 0-2.8-0.4-3.5-2-3.5q-2 0-2-2 0-2-2-2c-1.5 0-2-0.7-2-2.5 0-1.8-0.5-2.5-2-2.5q-2 0-2-2 0-2-2-2c-1.1 0-2-0.7-2-1.5 0-0.8-0.9-1.5-2-1.5-1.1 0-2-0.5-2-1 0-0.6-3.3-1-8-1-4.4 0-8.1-0.4-8.2-1-0.2-0.6-13.3-1.2-34.2-1.7-18.7-0.3-33.9-1-33.8-1.5 0.1-0.4-10.6-0.8-23.8-0.8-15.3 0-24-0.4-24-1 0-0.6-12.7-1-36-1-19.8 0-36.1-0.4-36.2-0.8-0.2-0.5-44.2-1.1-97.8-1.3-53.6-0.2-109.3-0.3-123.7-0.2zm-1610.3 4.3q0 2-2 2c-1.1 0-2 0.7-2 1.5 0 0.8-0.9 1.5-2 1.5q-2 0-2 2 0 2-2 2c-1.1 0-2 0.7-2 1.5 0 0.8-0.9 1.5-2 1.5-1.5 0-2 0.7-2 2.5 0 1.8-0.5 2.5-2 2.5q-2 0-2 2 0 2-2 2c-1.1 0-2 0.7-2 1.5 0 0.8-0.9 1.5-2 1.5-1.6 0-2 0.7-2 3.5 0 2.8-0.4 3.5-2 3.5-1.6 0-2 0.7-2 3 0 2.3-0.4 3-2 3-1.5 0-2 0.7-2 2.5 0 1.8-0.5 2.5-2 2.5-1.1 0-2 0.7-2 1.5 0 0.8-0.9 1.5-2 1.5-1.7 0-2 0.7-2 4.5 0 3.8-0.3 4.5-2 4.5-1.5 0-2 0.7-2 2.5 0 1.8-0.5 2.5-2 2.5-1.6 0-2 0.7-2 3 0 2.3-0.4 3-2 3-1.7 0-2 0.7-2 4 0 3.3-0.3 4-2 4-1.6 0-2 0.7-2 3 0 2.3-0.4 3-2 3-1.6 0-2 0.7-2 3.5 0 2.8-0.4 3.5-2 3.5-1.5 0-2 0.7-2 2.5 0 1.8-0.5 2.5-2 2.5-1.7 0-2 0.7-2 4.5 0 3.8-0.3 4.5-2 4.5-1.6 0-2 0.7-2 3.5 0 2.8-0.4 3.5-2 3.5-1.5 0-2 0.7-2 2.5 0 1.8-0.5 2.5-2 2.5-1.7 0-2 0.7-2 4.5 0 3.8-0.3 4.5-2 4.5-1.6 0-2 0.7-2 3.5 0 2.8-0.4 3.5-2 3.5-1.6 0-2 0.7-2 3.5 0 2.8-0.4 3.5-2 3.5-1.5 0-2 0.7-2 2.5 0 1.8-0.5 2.5-2 2.5-1.7 0-2 0.7-2 5 0 4.3-0.3 5-2 5-1.6 0-2 0.7-2 3 0 2.3-0.4 3-2 3-1.6 0-2 0.7-2 3.5 0 2.8-0.4 3.5-2 3.5-1.7 0-2 0.7-2 4 0 3.3-0.3 4-2 4-1.6 0-2 0.7-2 3.5 0 2.8-0.4 3.5-2 3.5-1.6 0-2 0.7-2 3 0 2.3-0.4 3-2 3-1.6 0-2 0.7-2 3.5 0 2.8-0.4 3.5-2 3.5-1.7 0-2 0.7-2 4 0 3.3-0.3 4-2 4-1.6 0-2 0.7-2 3 0 2.3-0.4 3-2 3-1.6 0-2 0.7-2 3.5 0 2.8-0.4 3.5-2 3.5-1.7 0-2 0.7-2 4 0 3.3-0.3 4-2 4-1.6 0-2 0.7-2 3 0 2.3-0.4 3-2 3-1.6 0-2 0.7-2 3.5 0 2.8-0.4 3.5-2 3.5-1.5 0-2 0.7-2 2.5 0 1.8-0.5 2.5-2 2.5-1.7 0-2 0.7-2 4.5 0 3.8-0.3 4.5-2 4.5-1.6 0-2 0.7-2 3.5 0 2.8-0.4 3.5-2 3.5-1.5 0-2 0.7-2 2.5 0 1.8-0.5 2.5-2 2.5-1.7 0-2 0.7-2 4.5 0 3.8-0.3 4.5-2 4.5-1.5 0-2 0.7-2 2.5 0 1.8-0.5 2.5-2 2.5-1.6 0-2 0.7-2 3.5 0 2.8-0.4 3.5-2 3.5-1.5 0-2 0.7-2 2.5 0 1.8-0.5 2.5-2 2.5-1.7 0-2 0.7-2 4.5 0 3.8-0.3 4.5-2 4.5-1.6 0-2 0.7-2 3.5 0 2.8-0.4 3.5-2 3.5-1.5 0-2 0.7-2 2.5 0 1.8-0.5 2.5-2 2.5-1.7 0-2 0.7-2 4.5 0 3.8-0.3 4.5-2 4.5-1.6 0-2 0.7-2 3.5 0 2.8-0.4 3.5-2 3.5-1.6 0-2 0.7-2 3.5 0 2.8-0.4 3.5-2 3.5-1.6 0-2 0.7-2 3.5 0 2.8-0.4 3.5-2 3.5-1.8 0-2 0.7-2 6 0 5.3-0.2 6-2 6-1.8 0-2 0.7-2 5.5 0 4.8-0.2 5.5-2 5.5-1.8 0-2 0.7-2 8.5 0 7.8-0.2 8.5-2 8.5-1.8 0-2 0.7-2 8 0 7.3 0.2 8 2 8 1.8 0 2 0.7 2 8 0 7.3 0.2 8 2 8 1.7 0 2 0.7 2 5 0 4.3 0.3 5 2 5 1.8 0 2 0.7 2 5.5 0 4.8 0.2 5.5 2 5.5 1.6 0 2 0.7 2 3.5 0 2.8 0.4 3.5 2 3.5 1.6 0 2 0.7 2 3.5 0 2.8 0.4 3.5 2 3.5 1.5 0 2 0.7 2 2.5 0 1.8 0.5 2.5 2 2.5 1.7 0 2 0.7 2 4.5 0 3.8 0.3 4.5 2 4.5 1.5 0 2 0.7 2 2.5 0 1.8 0.5 2.5 2 2.5 1.5 0 2 0.7 2 2.5 0 1.8 0.5 2.5 2 2.5 1.7 0 2 0.7 2 4.5 0 3.8 0.3 4.5 2 4.5 1.6 0 2 0.7 2 3.5 0 2.8 0.4 3.5 2 3.5 1.5 0 2 0.7 2 2.5 0 1.8 0.5 2.5 2 2.5 1.5 0 2 0.7 2 2.5 0 1.8 0.5 2.5 2 2.5 1.7 0 2 0.7 2 4.5 0 3.8 0.3 4.5 2 4.5 1.6 0 2 0.7 2 3.5 0 2.8 0.4 3.5 2 3.5 1.5 0 2 0.7 2 2.5 0 1.8 0.5 2.5 2 2.5 1.7 0 2 0.7 2 4.5 0 3.8 0.3 4.5 2 4.5 1.6 0 2 0.7 2 3.5 0 2.8 0.4 3.5 2 3.5 1.5 0 2 0.7 2 2.5 0 1.8 0.5 2.5 2 2.5 1.6 0 2 0.7 2 3 0 2.3 0.4 3 2 3 1.7 0 2 0.7 2 4 0 3.3 0.3 4 2 4 1.6 0 2 0.7 2 3.5 0 2.8 0.4 3.5 2 3.5 1.6 0 2 0.7 2 3 0 2.3 0.4 3 2 3 1.7 0 2 0.7 2 4 0 3.3 0.3 4 2 4 1.6 0 2 0.7 2 3.5 0 2.8 0.4 3.5 2 3.5 1.6 0 2 0.7 2 3 0 2.3 0.4 3 2 3 1.6 0 2 0.7 2 3.5 0 2.8 0.4 3.5 2 3.5 1.7 0 2 0.7 2 4 0 3.3 0.3 4 2 4 1.6 0 2 0.7 2 3 0 2.3 0.4 3 2 3 1.6 0 2 0.7 2 3.5 0 2.8 0.4 3.5 2 3.5 1.7 0 2 0.7 2 4 0 3.3 0.3 4 2 4 1.6 0 2 0.7 2 3.5 0 2.8 0.4 3.5 2 3.5 1.6 0 2 0.7 2 3 0 2.3 0.4 3 2 3 1.6 0 2 0.7 2 3.5 0 2.8 0.4 3.5 2 3.5 1.7 0 2 0.7 2 4 0 3.3 0.3 4 2 4 1.6 0 2 0.7 2 3 0 2.3 0.4 3 2 3 1.5 0 2 0.7 2 2.5 0 1.8 0.5 2.5 2 2.5 1.7 0 2 0.7 2 4.5 0 3.8 0.3 4.5 2 4.5 1.5 0 2 0.7 2 2.5 0 1.8 0.5 2.5 2 2.5 1.5 0 2 0.7 2 2.5 0 1.8 0.5 2.5 2 2.5 1.5 0 2 0.7 2 2.5 0 1.8 0.5 2.5 2 2.5 1.7 0 2 0.7 2 4.5 0 3.8 0.3 4.5 2 4.5 1.5 0 2 0.7 2 2.5 0 1.8 0.5 2.5 2 2.5 1.8 0 2 0.7 2 5.5 0 4.8 0.2 5.5 2 5.5 1.7 0 2 0.7 2 4.5 0 3.8 0.3 4.5 2 4.5 1.5 0 2 0.7 2 2.5 0 1.8 0.5 2.5 2 2.5 1.5 0 2 0.7 2 2.5 0 1.8 0.5 2.5 2 2.5 1.5 0 2 0.7 2 2.5 0 1.8 0.5 2.5 2 2.5 1.6 0 2 0.7 2 3.5 0 2.8 0.4 3.5 2 3.5q2 0 2 2 0 2 2 2c1.5 0 2 0.7 2 2.5 0 1.8 0.5 2.5 2 2.5 1.6 0 2 0.7 2 3.5 0 2.8 0.4 3.5 2 3.5q2 0 2 2c0 2 0.7 2 128 2 84.7 0 128-0.3 128-1 0-0.7 32-1 94-1 62 0 94-0.3 94-1 0-0.6 3.3-1 8-1h8c0-8.3 0.3-9 2-9 1.5 0 2-0.7 2-2.5 0-1.8 0.5-2.5 2-2.5 1.5 0 2-0.7 2-2.5 0-1.8 0.5-2.5 2-2.5 1.7 0 2-0.7 2-4.5 0-3.8 0.3-4.5 2-4.5 1.5 0 2-0.7 2-2.5 0-1.8 0.5-2.5 2-2.5 1.6 0 2-0.7 2-3.5 0-2.8 0.4-3.5 2-3.5 1.5 0 2-0.7 2-2.5 0-1.8 0.5-2.5 2-2.5 1.7 0 2-0.7 2-4.5 0-3.8 0.3-4.5 2-4.5 1.5 0 2-0.7 2-2.5 0-1.8 0.5-2.5 2-2.5 1.6 0 2-0.7 2-3 0-2.3 0.4-3 2-3 1.7 0 2-0.7 2-4 0-3.3 0.3-4 2-4 1.6 0 2-0.7 2-3 0-2.3 0.4-3 2-3 1.6 0 2-0.7 2-3.5 0-2.8 0.4-3.5 2-3.5 1.5 0 2-0.7 2-2.5 0-1.8 0.5-2.5 2-2.5 1.7 0 2-0.7 2-4.5 0-3.8 0.3-4.5 2-4.5 1.5 0 2-0.7 2-2.5 0-1.8 0.5-2.5 2-2.5 1.5 0 2-0.7 2-2.5 0-1.8 0.5-2.5 2-2.5 1.7 0 2-0.7 2-4.5 0-3.8 0.3-4.5 2-4.5 1.6 0 2-0.7 2-3.5 0-2.8 0.4-3.5 2-3.5 1.5 0 2-0.7 2-2.5 0-1.8 0.5-2.5 2-2.5 1.5 0 2-0.7 2-2.5 0-1.8 0.5-2.5 2-2.5 1.7 0 2-0.7 2-4.5 0-3.8 0.3-4.5 2-4.5 1.5 0 2-0.7 2-2.5 0-1.8 0.5-2.5 2-2.5 1.6 0 2-0.7 2-3.5 0-2.8 0.4-3.5 2-3.5 1.6 0 2-0.7 2-3.5 0-2.8 0.4-3.5 2-3.5 1.6 0 2-0.7 2-3.5 0-2.8 0.4-3.5 2-3.5 1.6 0 2-0.7 2-3 0-2.3 0.4-3 2-3 1.5 0 2-0.7 2-2.5 0-1.8 0.5-2.5 2-2.5 1.7 0 2-0.7 2-4.5 0-3.8 0.3-4.5 2-4.5 1.6 0 2-0.7 2-3.5 0-2.8 0.4-3.5 2-3.5 1.5 0 2-0.7 2-2.5 0-1.8 0.5-2.5 2-2.5 1.7 0 2-0.7 2-4.5 0-3.8 0.3-4.5 2-4.5 1.5 0 2-0.7 2-2.5 0-1.8 0.5-2.5 2-2.5 1.5 0 2-0.7 2-2.5 0-1.8 0.5-2.5 2-2.5 1.6 0 2-0.7 2-3.5 0-2.8 0.4-3.5 2-3.5 1.7 0 2-0.7 2-4.5 0-3.8 0.3-4.5 2-4.5 1.5 0 2-0.7 2-2.5 0-1.8 0.5-2.5 2-2.5 1.6 0 2-0.7 2-3.5 0-2.8 0.4-3.5 2-3.5 1.7 0 2-0.7 2-4.5 0-3.8 0.3-4.5 2-4.5 1.5 0 2-0.7 2-2.5 0-1.8 0.5-2.5 2-2.5 1.6 0 2-0.7 2-3.5 0-2.8 0.4-3.5 2-3.5 1.5 0 2-0.7 2-2.5 0-1.8 0.5-2.5 2-2.5 1.7 0 2-0.7 2-4.5 0-3.8 0.3-4.5 2-4.5 1.6 0 2-0.7 2-3.5 0-2.8 0.4-3.5 2-3.5 1.5 0 2-0.7 2-2.5 0-1.8 0.5-2.5 2-2.5 1.7 0 2-0.7 2-4.5 0-3.8 0.3-4.5 2-4.5 1.6 0 2-0.7 2-3.5 0-2.8 0.4-3.5 2-3.5 1.5 0 2-0.7 2-2.5 0-1.8 0.5-2.5 2-2.5 1.6 0 2-0.7 2-3.5 0-2.8 0.4-3.5 2-3.5 1.7 0 2-0.7 2-4.5 0-3.8 0.3-4.5 2-4.5 1.6 0 2-0.7 2-3.5 0-2.8 0.4-3.5 2-3.5 1.6 0 2-0.7 2-3.5 0-2.8 0.4-3.5 2-3.5 1.8 0 2-0.7 2-5.5 0-4.8 0.2-5.5 2-5.5 1.6 0 2-0.7 2-3.5 0-2.8 0.4-3.5 2-3.5 1.6 0 2-0.7 2-3.5 0-2.8 0.4-3.5 2-3.5 1.9 0 2-0.7 2-12 0-11.3-0.1-12-2-12-1.7 0-2-0.7-2-4.5 0-3.8-0.3-4.5-2-4.5-1.7 0-2-0.7-2-4.5 0-3.8-0.3-4.5-2-4.5-1.7 0-2-0.7-2-5 0-4.3-0.3-5-2-5-1.6 0-2-0.7-2-3.5 0-2.8-0.4-3.5-2-3.5-1.5 0-2-0.7-2-2.5 0-1.8-0.5-2.5-2-2.5-1.7 0-2-0.7-2-4.5 0-3.8-0.3-4.5-2-4.5-1.6 0-2-0.7-2-3.5 0-2.8-0.4-3.5-2-3.5-1.5 0-2-0.7-2-2.5 0-1.8-0.5-2.5-2-2.5-1.6 0-2-0.7-2-3 0-2.3-0.4-3-2-3-1.7 0-2-0.7-2-4 0-3.3-0.3-4-2-4-1.6 0-2-0.7-2-3 0-2.3-0.4-3-2-3-1.5 0-2-0.7-2-2.5 0-1.8-0.5-2.5-2-2.5-1.7 0-2-0.7-2-4.5 0-3.8-0.3-4.5-2-4.5-1.5 0-2-0.7-2-2.5 0-1.8-0.5-2.5-2-2.5-1.5 0-2-0.7-2-2.5 0-1.8-0.5-2.5-2-2.5-1.6 0-2-0.7-2-3.5 0-2.8-0.4-3.5-2-3.5-1.7 0-2-0.7-2-4.5 0-3.8-0.3-4.5-2-4.5-1.5 0-2-0.7-2-2.5 0-1.8-0.5-2.5-2-2.5-1.5 0-2-0.7-2-2.5 0-1.8-0.5-2.5-2-2.5-1.7 0-2-0.7-2-4.5 0-3.8-0.3-4.5-2-4.5-1.6 0-2-0.7-2-3.5 0-2.8-0.4-3.5-2-3.5-1.5 0-2-0.7-2-2.5 0-1.8-0.5-2.5-2-2.5-1.6 0-2-0.7-2-3.5 0-2.8-0.4-3.5-2-3.5-1.7 0-2-0.7-2-4.5 0-3.8-0.3-4.5-2-4.5-1.6 0-2-0.7-2-3.5 0-2.8-0.4-3.5-2-3.5-1.5 0-2-0.7-2-2.5 0-1.8-0.5-2.5-2-2.5-1.7 0-2-0.7-2-4.5 0-3.8-0.3-4.5-2-4.5-1.6 0-2-0.7-2-3.5 0-2.8-0.4-3.5-2-3.5-1.5 0-2-0.7-2-2.5 0-1.8-0.5-2.5-2-2.5-1.6 0-2-0.7-2-3.5 0-2.8-0.4-3.5-2-3.5-1.7 0-2-0.7-2-4.5 0-3.8-0.3-4.5-2-4.5-1.5 0-2-0.7-2-2.5 0-1.8-0.5-2.5-2-2.5-1.6 0-2-0.7-2-3 0-2.3-0.4-3-2-3-1.7 0-2-0.7-2-4 0-3.3-0.3-4-2-4-1.6 0-2-0.7-2-3.5 0-2.8-0.4-3.5-2-3.5-1.6 0-2-0.7-2-3 0-2.3-0.4-3-2-3-1.5 0-2-0.7-2-2.5 0-1.8-0.5-2.5-2-2.5-1.7 0-2-0.7-2-4.5 0-3.8-0.3-4.5-2-4.5-1.5 0-2-0.7-2-2.5 0-1.8-0.5-2.5-2-2.5-1.5 0-2-0.7-2-2.5 0-1.8-0.5-2.5-2-2.5-1.7 0-2-0.7-2-4.5 0-3.8-0.3-4.5-2-4.5-1.5 0-2-0.7-2-2.5 0-1.8-0.5-2.5-2-2.5-1.6 0-2-0.7-2-3.5 0-2.8-0.4-3.5-2-3.5-1.5 0-2-0.7-2-2.5 0-1.8-0.5-2.5-2-2.5-1.7 0-2-0.7-2-4.5 0-3.8-0.3-4.5-2-4.5-1.5 0-2-0.7-2-2.5 0-1.8-0.5-2.5-2-2.5-1.6 0-2-0.7-2-3.5 0-2.8-0.4-3.5-2-3.5-1.7 0-2-0.7-2-4.5 0-3.8-0.3-4.5-2-4.5-1.6 0-2-0.7-2-3.5 0-2.8-0.4-3.5-2-3.5-1.5 0-2-0.7-2-2.5 0-1.8-0.5-2.5-2-2.5-1.6 0-2-0.7-2-3.5 0-2.8-0.4-3.5-2-3.5-1.6 0-2-0.7-2-3.5v-3.5c-119.3 0-144-0.3-144-1 0-0.7-39.3-1-116-1-76.7 0-116-0.3-116-1 0-0.7-14.7-1-42-1-41.3 0-42 0-42 2zm20.3 863.7c-4.7 0.2-8.3 0.7-8.3 1.3 0 0.5-1.8 1-4 1-2.2 0-4 0.5-4 1 0 0.5-0.9 1-2 1-1.1 0-2 0.3-2 0.7 0 0.5-2.6 1.1-5.7 1.5-3.2 0.4-5.9 1.2-6 1.8-0.2 0.5-1.2 1-2.3 1-1.5 0-2 0.7-2 2.5 0 1.8-0.5 2.5-2 2.5-1.1 0-2 0.5-2 1 0 0.5-0.9 1-2 1q-2 0-2 2 0 2-2 2c-1.6 0-2 0.7-2 3.5 0 2.8-0.4 3.5-2 3.5-1.5 0-2 0.7-2 2.5 0 1.8-0.5 2.5-2 2.5-1.5 0-2 0.7-2 2.5 0 1.8-0.5 2.5-2 2.5-1.5 0-2 0.7-2 2.5 0 1.8-0.5 2.5-2 2.5-1.7 0-2 0.7-2 4.5 0 3.8-0.3 4.5-2 4.5-1.6 0-2 0.7-2 3.5 0 2.8-0.4 3.5-2 3.5-1.6 0-2 0.7-2 3.5 0 2.8-0.4 3.5-2 3.5-1.7 0-2 0.7-2 4.5 0 3.8-0.3 4.5-2 4.5-1.6 0-2 0.7-2 3.5 0 2.8-0.4 3.5-2 3.5-1.6 0-2 0.7-2 3.5 0 2.8-0.4 3.5-2 3.5-1.6 0-2 0.7-2 3.5 0 2.8-0.4 3.5-2 3.5-1.7 0-2 0.7-2 4.5 0 3.8-0.3 4.5-2 4.5-1.6 0-2 0.7-2 3.5 0 2.8-0.4 3.5-2 3.5-1.6 0-2 0.7-2 3.5 0 2.8-0.4 3.5-2 3.5-1.7 0-2 0.7-2 5 0 4.3-0.3 5-2 5-1.5 0-2 0.7-2 2.5 0 1.8-0.5 2.5-2 2.5-1.6 0-2 0.7-2 3.5 0 2.8-0.4 3.5-2 3.5-1.6 0-2 0.7-2 3.5 0 2.8-0.4 3.5-2 3.5-1.7 0-2 0.7-2 4.5 0 3.8-0.3 4.5-2 4.5-1.6 0-2 0.7-2 3.5 0 2.8-0.4 3.5-2 3.5-1.5 0-2 0.7-2 2.5 0 1.8-0.5 2.5-2 2.5-1.8 0-2 0.7-2 5.5 0 4.8-0.2 5.5-2 5.5-1.5 0-2 0.7-2 2.5 0 1.8-0.5 2.5-2 2.5-1.6 0-2 0.7-2 3.5 0 2.8-0.4 3.5-2 3.5-1.5 0-2 0.7-2 2.5 0 1.8-0.5 2.5-2 2.5-1.7 0-2 0.7-2 4.5 0 3.8-0.3 4.5-2 4.5-1.6 0-2 0.7-2 3.5 0 2.8-0.4 3.5-2 3.5-1.5 0-2 0.7-2 2.5 0 1.8-0.5 2.5-2 2.5-1.7 0-2 0.7-2 4.5 0 3.8-0.3 4.5-2 4.5-1.5 0-2 0.7-2 2.5 0 1.8-0.5 2.5-2 2.5-1.6 0-2 0.7-2 3 0 2.3-0.4 3-2 3-1.5 0-2 0.7-2 2.5 0 1.8-0.5 2.5-2 2.5-1.7 0-2 0.7-2 4.5 0 3.8-0.3 4.5-2 4.5-1.5 0-2 0.7-2 2.5 0 1.8-0.5 2.5-2 2.5-1.5 0-2 0.7-2 2.5 0 1.8-0.5 2.5-2 2.5-1.7 0-2 0.7-2 4.5 0 3.8-0.3 4.5-2 4.5-1.5 0-2 0.7-2 2.5 0 1.8-0.5 2.5-2 2.5-1.6 0-2 0.7-2 3.5 0 2.8-0.4 3.5-2 3.5-1.6 0-2 0.7-2 3.5 0 2.8-0.4 3.5-2 3.5-1.8 0-2 0.7-2 5.5 0 4.8-0.2 5.5-2 5.5-1.5 0-2 0.7-2 2.5 0 1.8-0.5 2.5-2 2.5-1.6 0-2 0.7-2 3.5 0 2.8-0.4 3.5-2 3.5-1.7 0-2 0.7-2 4.5 0 3.8-0.3 4.5-2 4.5-1.5 0-2 0.7-2 2.5 0 1.8-0.5 2.5-2 2.5-1.6 0-2 0.7-2 3.5 0 2.8-0.4 3.5-2 3.5-1.6 0-2 0.7-2 3.5 0 2.8-0.4 3.5-2 3.5-1.8 0-2 0.7-2 6 0 5.3-0.2 6-2 6-1.8 0-2 0.7-2 5.5 0 4.8-0.2 5.5-2 5.5-1.8 0-2 0.7-2 8.5 0 7.8-0.2 8.5-2 8.5-1.9 0-2 0.7-2 14 0 13.3 0.1 14 2 14 1.9 0 2 0.7 2 9 0 8.3 0.1 9 2 9 1.7 0 2 0.7 2 4 0 3.3 0.3 4 2 4 1.8 0 2 0.7 2 5.5 0 4.8 0.2 5.5 2 5.5 1.6 0 2 0.7 2 3.5 0 2.8 0.4 3.5 2 3.5 1.5 0 2 0.7 2 2.5 0 1.8 0.5 2.5 2 2.5 1.5 0 2 0.7 2 2.5 0 1.8 0.5 2.5 2 2.5 1.6 0 2 0.7 2 3.5 0 2.8 0.4 3.5 2 3.5 1.6 0 2 0.7 2 3 0 2.3 0.4 3 2 3 1.5 0 2 0.7 2 2.5 0 1.8 0.5 2.5 2 2.5 1.7 0 2 0.7 2 4.5 0 3.8 0.3 4.5 2 4.5 1.7 0 2 0.7 2 4 0 3.3 0.3 4 2 4 1.6 0 2 0.7 2 3.5 0 2.8 0.4 3.5 2 3.5 1.6 0 2 0.7 2 3 0 2.3 0.4 3 2 3 1.7 0 2 0.7 2 4 0 3.3 0.3 4 2 4 1.6 0 2 0.7 2 3 0 2.3 0.4 3 2 3 1.5 0 2 0.7 2 2.5 0 1.8 0.5 2.5 2 2.5 1.7 0 2 0.7 2 4.5 0 3.8 0.3 4.5 2 4.5 1.5 0 2 0.7 2 2.5 0 1.8 0.5 2.5 2 2.5 1.5 0 2 0.7 2 2.5 0 1.8 0.5 2.5 2 2.5 1.5 0 2 0.7 2 2.5 0 1.8 0.5 2.5 2 2.5 1.6 0 2 0.7 2 3.5 0 2.8 0.4 3.5 2 3.5 1.6 0 2 0.7 2 3 0 2.3 0.4 3 2 3 1.6 0 2 0.7 2 3.5 0 2.8 0.4 3.5 2 3.5 1.7 0 2 0.7 2 4 0 3.3 0.3 4 2 4 1.6 0 2 0.7 2 3 0 2.3 0.4 3 2 3 1.7 0 2 0.7 2 4 0 3.3 0.3 4 2 4 1.6 0 2 0.7 2 3.5 0 2.8 0.4 3.5 2 3.5 1.7 0 2 0.7 2 4.5 0 3.8 0.3 4.5 2 4.5 1.5 0 2 0.7 2 2.5 0 1.8 0.5 2.5 2 2.5 1.6 0 2 0.7 2 3.5 0 2.8 0.4 3.5 2 3.5 1.7 0 2 0.7 2 4.5 0 3.8 0.3 4.5 2 4.5 1.5 0 2 0.7 2 2.5 0 1.8 0.5 2.5 2 2.5 1.6 0 2 0.7 2 3.5 0 2.8 0.4 3.5 2 3.5 1.6 0 2 0.7 2 3 0 2.3 0.4 3 2 3 1.7 0 2 0.7 2 4 0 3.3 0.3 4 2 4 1.6 0 2 0.7 2 3 0 2.3 0.4 3 2 3 1.5 0 2 0.7 2 2.5 0 1.8 0.5 2.5 2 2.5 1.7 0 2 0.7 2 5 0 4.3 0.3 5 2 5 1.6 0 2 0.7 2 3 0 2.3 0.4 3 2 3 1.5 0 2 0.7 2 2.5 0 1.8 0.5 2.5 2 2.5 1.6 0 2 0.7 2 3.5 0 2.8 0.4 3.5 2 3.5 1.7 0 2 0.7 2 4.5 0 3.8 0.3 4.5 2 4.5 1.5 0 2 0.7 2 2.5 0 1.8 0.5 2.5 2 2.5 1.6 0 2 0.7 2 3.5 0 2.8 0.4 3.5 2 3.5 1.7 0 2 0.7 2 5 0 4.3 0.3 5 2 5 1.6 0 2 0.7 2 3.5 0 2.8 0.4 3.5 2 3.5 1.6 0 2 0.7 2 3 0 2.3 0.4 3 2 3 1.6 0 2 0.7 2 3.5 0 2.8 0.4 3.5 2 3.5 1.7 0 2 0.7 2 5 0 4.3 0.3 5 2 5 1.5 0 2 0.7 2 2.5 0 1.8 0.5 2.5 2 2.5 1.1 0 2 0.4 2 1 0 0.7 77.3 1 230 1h230c0-4.3 0.5-5 2-5 1.6 0 2-0.7 2-3.5 0-2.8 0.4-3.5 2-3.5 1.7 0 2-0.7 2-4.5 0-3.8 0.3-4.5 2-4.5 1.5 0 2-0.7 2-2.5 0-1.8 0.5-2.5 2-2.5 1.6 0 2-0.7 2-3.5 0-2.8 0.4-3.5 2-3.5 1.7 0 2-0.7 2-4.5 0-3.8 0.3-4.5 2-4.5 1.5 0 2-0.7 2-2.5 0-1.8 0.5-2.5 2-2.5 1.5 0 2-0.7 2-2.5 0-1.8 0.5-2.5 2-2.5 1.6 0 2-0.7 2-3.5 0-2.8 0.4-3.5 2-3.5 1.7 0 2-0.7 2-4.5 0-3.8 0.3-4.5 2-4.5 1.5 0 2-0.7 2-2.5 0-1.8 0.5-2.5 2-2.5 1.6 0 2-0.7 2-3.5 0-2.8 0.4-3.5 2-3.5 1.7 0 2-0.7 2-4.5 0-3.8 0.3-4.5 2-4.5 1.5 0 2-0.7 2-2.5 0-1.8 0.5-2.5 2-2.5 1.6 0 2-0.7 2-3 0-2.3 0.4-3 2-3 1.6 0 2-0.7 2-3.5 0-2.8 0.4-3.5 2-3.5 1.7 0 2-0.7 2-4 0-3.3 0.3-4 2-4 1.6 0 2-0.7 2-3 0-2.3 0.4-3 2-3 1.5 0 2-0.7 2-2.5 0-1.8 0.5-2.5 2-2.5 1.7 0 2-0.7 2-4.5 0-3.8 0.3-4.5 2-4.5 1.6 0 2-0.7 2-3.5 0-2.8 0.4-3.5 2-3.5 1.5 0 2-0.7 2-2.5 0-1.8 0.5-2.5 2-2.5 1.5 0 2-0.7 2-2.5 0-1.8 0.5-2.5 2-2.5 1.7 0 2-0.7 2-4.5 0-3.8 0.3-4.5 2-4.5 1.5 0 2-0.7 2-2.5 0-1.8 0.5-2.5 2-2.5 1.6 0 2-0.7 2-3.5 0-2.8 0.4-3.5 2-3.5 1.7 0 2-0.7 2-4.5 0-3.8 0.3-4.5 2-4.5 1.5 0 2-0.7 2-2.5 0-1.8 0.5-2.5 2-2.5 1.5 0 2-0.7 2-2.5 0-1.8 0.5-2.5 2-2.5 1.6 0 2-0.7 2-3 0-2.3 0.4-3 2-3 1.7 0 2-0.7 2-4 0-3.3 0.3-4 2-4 1.6 0 2-0.7 2-3.5 0-2.8 0.4-3.5 2-3.5 1.6 0 2-0.7 2-3 0-2.3 0.4-3 2-3 1.7 0 2-0.7 2-4 0-3.3 0.3-4 2-4 1.6 0 2-0.7 2-3 0-2.3 0.4-3 2-3 1.5 0 2-0.7 2-2.5 0-1.8 0.5-2.5 2-2.5 1.5 0 2-0.7 2-2.5 0-1.8 0.5-2.5 2-2.5 1.7 0 2-0.7 2-4.5 0-3.8 0.3-4.5 2-4.5 1.6 0 2-0.7 2-3.5 0-2.8 0.4-3.5 2-3.5 1.5 0 2-0.7 2-2.5 0-1.8 0.5-2.5 2-2.5 1.7 0 2-0.7 2-4.5 0-3.8 0.3-4.5 2-4.5 1.5 0 2-0.7 2-2.5 0-1.8 0.5-2.5 2-2.5 1.5 0 2-0.7 2-2.5 0-1.8 0.5-2.5 2-2.5 1.6 0 2-0.7 2-3.5 0-2.8 0.4-3.5 2-3.5 1.7 0 2-0.7 2-4.5 0-3.8 0.3-4.5 2-4.5 1.5 0 2-0.7 2-2.5 0-1.8 0.5-2.5 2-2.5 1.6 0 2-0.7 2-3 0-2.3 0.4-3 2-3 1.7 0 2-0.7 2-5 0-4.3 0.3-5 2-5 1.5 0 2-0.7 2-2.5 0-1.8 0.5-2.5 2-2.5 1.6 0 2-0.7 2-3 0-2.3 0.4-3 2-3 1.6 0 2-0.7 2-3.5 0-2.8 0.4-3.5 2-3.5 1.7 0 2-0.7 2-4 0-3.3 0.3-4 2-4 1.6 0 2-0.7 2-3.5 0-2.8 0.4-3.5 2-3.5 1.6 0 2-0.7 2-3.5 0-2.8 0.4-3.5 2-3.5 1.8 0 2-0.7 2-6.5 0-5.8 0.2-6.5 2-6.5 1.9 0 2-0.7 2-12 0-11.3-0.1-12-2-12-1.8 0-2-0.7-2-7 0-6.3-0.2-7-2-7-1.6 0-2-0.7-2-3.5 0-2.8-0.4-3.5-2-3.5-1.6 0-2-0.7-2-3.5 0-2.8-0.4-3.5-2-3.5-1.8 0-2-0.7-2-5.5 0-4.8-0.2-5.5-2-5.5-1.5 0-2-0.7-2-2.5 0-1.8-0.5-2.5-2-2.5-1.6 0-2-0.7-2-3.5 0-2.8-0.4-3.5-2-3.5-1.6 0-2-0.7-2-3.5 0-2.8-0.4-3.5-2-3.5-1.7 0-2-0.7-2-4.5 0-3.8-0.3-4.5-2-4.5-1.5 0-2-0.7-2-2.5 0-1.8-0.5-2.5-2-2.5-1.6 0-2-0.7-2-3.5 0-2.8-0.4-3.5-2-3.5-1.7 0-2-0.7-2-4.5 0-3.8-0.3-4.5-2-4.5-1.6 0-2-0.7-2-3.5 0-2.8-0.4-3.5-2-3.5-1.5 0-2-0.7-2-2.5 0-1.8-0.5-2.5-2-2.5-1.5 0-2-0.7-2-2.5 0-1.8-0.5-2.5-2-2.5-1.8 0-2-0.7-2-5.5 0-4.8-0.2-5.5-2-5.5-1.5 0-2-0.7-2-2.5 0-1.8-0.5-2.5-2-2.5-1.5 0-2-0.7-2-2.5 0-1.8-0.5-2.5-2-2.5-1.8 0-2-0.7-2-5.5 0-4.8-0.2-5.5-2-5.5-1.5 0-2-0.7-2-2.5 0-1.8-0.5-2.5-2-2.5-1.5 0-2-0.7-2-2.5 0-1.8-0.5-2.5-2-2.5-1.6 0-2-0.7-2-3.5 0-2.8-0.4-3.5-2-3.5-1.7 0-2-0.7-2-4.5 0-3.8-0.3-4.5-2-4.5-1.5 0-2-0.7-2-2.5 0-1.8-0.5-2.5-2-2.5-1.6 0-2-0.7-2-3.5 0-2.8-0.4-3.5-2-3.5-1.7 0-2-0.7-2-4.5 0-3.8-0.3-4.5-2-4.5-1.5 0-2-0.7-2-2.5 0-1.8-0.5-2.5-2-2.5-1.6 0-2-0.7-2-3.5 0-2.8-0.4-3.5-2-3.5-1.5 0-2-0.7-2-2.5 0-1.8-0.5-2.5-2-2.5-1.7 0-2-0.7-2-4.5 0-3.8-0.3-4.5-2-4.5-1.6 0-2-0.7-2-3.5 0-2.8-0.4-3.5-2-3.5-1.5 0-2-0.7-2-2.5 0-1.8-0.5-2.5-2-2.5-1.7 0-2-0.7-2-4.5 0-3.8-0.3-4.5-2-4.5-1.6 0-2-0.7-2-3.5 0-2.8-0.4-3.5-2-3.5-1.5 0-2-0.7-2-2.5 0-1.8-0.5-2.5-2-2.5-1.6 0-2-0.7-2-3 0-2.3-0.4-3-2-3-1.7 0-2-0.7-2-4 0-3.3-0.3-4-2-4-1.6 0-2-0.7-2-3.5 0-2.8-0.4-3.5-2-3.5-1.6 0-2-0.7-2-3 0-2.3-0.4-3-2-3-1.7 0-2-0.7-2-4 0-3.3-0.3-4-2-4-1.6 0-2-0.7-2-3 0-2.3-0.4-3-2-3-1.6 0-2-0.7-2-3.5 0-2.8-0.4-3.5-2-3.5-1.5 0-2-0.7-2-2.5 0-1.8-0.5-2.5-2-2.5-1.7 0-2-0.7-2-4.5 0-3.8-0.3-4.5-2-4.5-1.5 0-2-0.7-2-2.5 0-1.8-0.5-2.5-2-2.5-1.6 0-2-0.7-2-3.5 0-2.8-0.4-3.5-2-3.5-1.6 0-2-0.7-2-3.5 0-2.8-0.4-3.5-2-3.5-1.5 0-2-0.7-2-2.5 0-1.8-0.5-2.5-2-2.5-1.5 0-2-0.7-2-2.5 0-1.8-0.5-2.5-2-2.5-1.6 0-2-0.7-2-3 0-2.3-0.4-3-2-3-1.6 0-2-0.7-2-3.5 0-2.8-0.4-3.5-2-3.5-1.1 0-2-0.7-2-1.5 0-0.8-0.9-1.5-2-1.5-1.5 0-2-0.7-2-2.5 0-1.8-0.5-2.5-2-2.5-1.5 0-2-0.7-2-2.8 0-2.2-0.5-2.8-3.2-3.5-1.8-0.4-63-0.7-136-0.7-87.9 0-132.8-0.3-132.8-1 0-0.6-13.3-1-38-1-24.7 0-38-0.4-38-1 0-0.6-7.3-1-20-1-11 0-20.1-0.4-20.2-0.9-0.2-0.4-7.3-1-15.8-1.3-8.5-0.2-19.2-0.3-23.7-0.1zm747.6-424.1c0.1 2.8-0.3 3.4-1.9 3.4-1.5 0-2 0.7-2 2.5 0 1.8-0.5 2.5-2 2.5-1.5 0-2 0.7-2 2.5 0 1.8-0.5 2.5-2 2.5-1.6 0-2 0.7-2 3.5 0 2.8-0.4 3.5-2 3.5-1.5 0-2 0.7-2 2.5 0 1.8-0.5 2.5-2 2.5-1.6 0-2 0.7-2 3 0 2.3-0.4 3-2 3-1.5 0-2 0.7-2 2.5 0 1.8-0.5 2.5-2 2.5-1.7 0-2 0.7-2 4.5 0 3.8-0.3 4.5-2 4.5-1.5 0-2 0.7-2 2.5 0 1.8-0.5 2.5-2 2.5-1.5 0-2 0.7-2 2.5 0 1.8-0.5 2.5-2 2.5-1.8 0-2 0.7-2 6 0 5.3-0.2 6-2 6-1.6 0-2 0.7-2 3.5 0 2.8-0.4 3.5-2 3.5-1.6 0-2 0.7-2 3 0 2.3-0.4 3-2 3-1.6 0-2 0.7-2 3.5 0 2.8-0.4 3.5-2 3.5-1.7 0-2 0.7-2 4 0 3.3-0.3 4-2 4-1.6 0-2 0.7-2 3 0 2.3-0.4 3-2 3-1.5 0-2 0.7-2 2.5 0 1.8-0.5 2.5-2 2.5-1.7 0-2 0.7-2 4.5 0 3.8-0.3 4.5-2 4.5-1.5 0-2 0.7-2 2.5 0 1.8-0.5 2.5-2 2.5-1.6 0-2 0.7-2 3.5 0 2.8-0.4 3.5-2 3.5-1.5 0-2 0.7-2 2.5 0 1.8-0.5 2.5-2 2.5-1.7 0-2 0.7-2 4.5 0 3.8-0.3 4.5-2 4.5-1.6 0-2 0.7-2 3.5 0 2.8-0.4 3.5-2 3.5-1.5 0-2 0.7-2 2.5 0 1.8-0.5 2.5-2 2.5-1.8 0-2 0.7-2 5.5 0 4.8-0.2 5.5-2 5.5-1.6 0-2 0.7-2 3.5 0 2.8-0.4 3.5-2 3.5-1.5 0-2 0.7-2 2.5 0 1.8-0.5 2.5-2 2.5-1.6 0-2 0.7-2 3.5 0 2.8-0.4 3.5-2 3.5-1.7 0-2 0.7-2 4.5 0 3.8-0.3 4.5-2 4.5-1.5 0-2 0.7-2 2.5 0 1.8-0.5 2.5-2 2.5-1.6 0-2 0.7-2 3.5 0 2.8-0.4 3.5-2 3.5-1.6 0-2 0.7-2 3.5 0 2.8-0.4 3.5-2 3.5-1.6 0-2 0.7-2 3.5 0 2.8-0.4 3.5-2 3.5-1.5 0-2 0.7-2 2.5 0 1.8-0.5 2.5-2 2.5-1.5 0-2 0.7-2 2.5 0 1.8-0.5 2.5-2 2.5-1.6 0-2 0.7-2 3.5 0 2.8-0.4 3.5-2 3.5q-2 0-2 2 0 2-2 2c-1.5 0-2 0.7-2 2.5 0 1.8-0.5 2.5-2 2.5-1.7 0-2 0.7-2 4.5 0 3.8-0.3 4.5-2 4.5-1.5 0-2 0.7-2 2.5 0 1.8-0.5 2.5-2 2.5-1.6 0-2 0.7-2 3.5 0 2.8-0.4 3.5-2 3.5-1.5 0-2 0.7-2 2.5 0 1.8-0.5 2.5-2 2.5-1.8 0-2 0.7-2 5.5 0 4.8-0.2 5.5-2 5.5-1.5 0-2 0.7-2 2.5 0 1.8-0.5 2.5-2 2.5-1.6 0-2 0.7-2 3.5 0 2.8-0.4 3.5-2 3.5-1.8 0-2 0.7-2 5.5 0 4.8-0.2 5.5-2 5.5-1.6 0-2 0.7-2 3.5 0 2.8-0.4 3.5-2 3.5-1.6 0-2 0.7-2 3.5 0 2.8-0.4 3.5-2 3.5-1.6 0-2 0.7-2 3.5 0 2.8-0.4 3.5-2 3.5-1.7 0-2 0.7-2 5 0 4.3-0.3 5-2 5-1.7 0-2 0.7-2 4.5 0 3.8-0.3 4.5-2 4.5-1.6 0-2 0.7-2 3.5 0 2.8-0.4 3.5-2 3.5-1.8 0-2 0.7-2 7 0 6.3-0.2 7-2 7-1.7 0-2 0.7-2 4.5 0 3.8-0.3 4.5-2 4.5-1.9 0-2 0.7-2 14 0 13.3 0.1 14 2 14 1.7 0 2 0.7 2 4 0 3.3 0.3 4 2 4 1.8 0 2 0.7 2 5.5 0 4.8 0.2 5.5 2 5.5 1.6 0 2 0.7 2 3.5 0 2.8 0.4 3.5 2 3.5 1.5 0 2 0.7 2 2.5 0 1.8 0.5 2.5 2 2.5 1.7 0 2 0.7 2 4.5 0 3.8 0.3 4.5 2 4.5 1.5 0 2 0.7 2 2.5 0 1.8 0.5 2.5 2 2.5 1.5 0 2 0.7 2 2.5 0 1.8 0.5 2.5 2 2.5 1.6 0 2 0.7 2 3 0 2.3 0.4 3 2 3 1.7 0 2 0.7 2 4 0 3.3 0.3 4 2 4 1.6 0 2 0.7 2 3.5 0 2.8 0.4 3.5 2 3.5 1.7 0 2 0.7 2 4.5 0 3.8 0.3 4.5 2 4.5 1.6 0 2 0.7 2 3.5 0 2.8 0.4 3.5 2 3.5 1.5 0 2 0.7 2 2.5 0 1.8 0.5 2.5 2 2.5 1.6 0 2 0.7 2 3 0 2.3 0.4 3 2 3 1.1 0 2 0.7 2 1.5 0 0.8 0.9 1.5 2 1.5 1.6 0 2 0.7 2 3.5 0 2.8 0.4 3.5 2 3.5 1.5 0 2 0.7 2 2.5 0 1.8 0.5 2.5 2 2.5 1.6 0 2 0.7 2 3 0 2.3 0.4 3 2 3 1.7 0 2 0.7 2 4 0 3.3 0.3 4 2 4 1.6 0 2 0.7 2 3 0 2.3 0.4 3 2 3 1.5 0 2 0.7 2 2.5 0 1.8 0.5 2.5 2 2.5 1.5 0 2 0.7 2 2.5 0 1.8 0.5 2.5 2 2.5 1.7 0 2 0.7 2 4.5 0 3.8 0.3 4.5 2 4.5 1.5 0 2 0.7 2 2.5 0 1.8 0.5 2.5 2 2.5 1.5 0 2 0.7 2 2.5 0 1.8 0.5 2.5 2 2.5 1.8 0 2 0.7 2 5.5 0 4.8 0.2 5.5 2 5.5 1.5 0 2 0.7 2 2.5 0 1.8 0.5 2.5 2 2.5 1.6 0 2 0.7 2 3.5 0 2.8 0.4 3.5 2 3.5 1.6 0 2 0.7 2 3.5 0 2.8 0.4 3.5 2 3.5 1.7 0 2 0.7 2 4.5 0 3.8 0.3 4.5 2 4.5 1.6 0 2 0.7 2 3.5 0 2.8 0.4 3.5 2 3.5 1.6 0 2 0.7 2 3.5 0 2.8 0.4 3.5 2 3.5 1.7 0 2 0.7 2 4.5 0 3.8 0.3 4.5 2 4.5 1.6 0 2 0.7 2 3.5 0 2.8 0.4 3.5 2 3.5 1.6 0 2 0.7 2 3.5 0 2.8 0.4 3.5 2 3.5 1.6 0 2 0.7 2 3.5 0 2.8 0.4 3.5 2 3.5 1.7 0 2 0.7 2 5 0 4.3 0.3 5 2 5 1.5 0 2 0.7 2 2.5 0 1.8 0.5 2.5 2 2.5 1.6 0 2 0.7 2 3 0 2.3 0.4 3 2 3 1.7 0 2 0.7 2 4 0 3.3 0.3 4 2 4q2 0 2 2 0 2 2 2c1.5 0 2 0.7 2 2.5 0 1.8 0.5 2.5 2 2.5q2 0 2 2 0 2 2 2c1.1 0 2 0.7 2 1.5 0 0.8 0.9 1.5 2 1.5q2 0 2 2c0 1.8 0.7 2 6 2 3.3 0 6-0.4 6-1 0-0.6 0.9-1 2-1 1.1 0 2-0.4 2-1 0-0.6 0.9-1 2-1 1.1 0 2-0.4 2-1 0-0.6 1.8-1.2 4-1.5 3.2-0.4 4-0.9 4-2.5q0-2 2-2c1.1 0 2-0.4 2-1 0-0.6 0.9-1 2-1 1.1 0 2-0.7 2-1.5 0-0.8 0.9-1.5 2-1.5 1.1 0 2-0.4 2-1 0-0.6 0.9-1 2-1 1.1 0 2-0.4 2-1 0-0.6 0.9-1 2-1 1.1 0 2-0.7 2-1.5 0-0.8 0.9-1.5 2-1.5q2 0 2-2c0-1.6 0.8-2.1 4-2.5 3.2-0.4 4-0.9 4-2.5q0-2 2-2c1.1 0 2-0.7 2-1.5 0-0.8 0.9-1.5 2-1.5 1.1 0 2-0.4 2-1 0-0.6 0.9-1 2-1q2 0 2-2c0-1.6 0.8-2.1 4-2.5 3.2-0.4 4-0.9 4-2.5q0-2 2-2c1.1 0 2-0.7 2-1.5 0-0.8 0.9-1.5 2-1.5 1.1 0 2-0.4 2-1 0-0.6 0.9-1 2-1q2 0 2-2 0-2 2-2c1.1 0 2-0.7 2-1.5 0-0.8 0.9-1.5 2-1.5 1.1 0 2-0.4 2-1 0-0.6 0.9-1 2-1 1.1 0 2-0.4 2-1 0-0.6 0.9-1 2-1 1.5 0 2-0.7 2-2.5 0-1.8 0.5-2.5 2-2.5 1.1 0 2-0.4 2-1 0-0.6 0.9-1 2-1 1.1 0 2-0.7 2-1.5 0-0.8 0.9-1.5 2-1.5q2 0 2-2c0-1.6 0.8-2.1 4-2.5 3.2-0.4 4-0.9 4-2.5q0-2 2-2c1.1 0 2-0.4 2-1 0-0.6 0.9-1 2-1 1.1 0 2-0.7 2-1.5 0-0.8 0.9-1.5 2-1.5q2 0 2-2c0-1.6 0.8-2.1 4-2.5 3.7-0.5 4-0.8 4-3.5 0-2.8 0.3-3 4-3.5 2.2-0.3 4-0.9 4-1.5 0-0.6 0.9-1 2-1q2 0 2-2 0-2 2-2c1.1 0 2-0.7 2-1.5 0-0.8 0.9-1.5 2-1.5q2 0 2-2c0-1.6 0.8-2.1 4-2.5 3.2-0.4 4-0.9 4-2.5q0-2 2-2c1.1 0 2-0.7 2-1.5 0-0.8 0.9-1.5 2-1.5 1.1 0 2-0.4 2-1 0-0.6 0.9-1 2-1q2 0 2-2 0-2 2-2c1.1 0 2-0.7 2-1.5 0-0.8 0.9-1.5 2-1.5 1.1 0 2-0.4 2-1 0-0.6 0.9-1 2-1 1.1 0 2-0.7 2-1.5 0-0.8 0.9-1.5 2-1.5q2 0 2-2 0-2 2-2c1.1 0 2-0.7 2-1.5 0-0.8 0.9-1.5 2-1.5 1.1 0 2-0.4 2-1 0-0.6 0.9-1 2-1q2 0 2-2 0-2 2-2c1.1 0 2-0.7 2-1.5 0-0.8 0.9-1.5 2-1.5 1.1 0 2-0.4 2-1 0-0.6 0.9-1 2-1 1.1 0 2-0.7 2-1.5 0-0.8 0.9-1.5 2-1.5q2 0 2-2 0-2 2-2c1.1 0 2-0.7 2-1.5 0-0.8 0.9-1.5 2-1.5 1.1 0 2-0.5 2-1 0-0.5 0.9-1 2-1q2 0 2-2 0-2 2-2c1.1 0 2-0.7 2-1.5 0-0.8 0.9-1.5 2-1.5 1.1 0 2-0.5 2-1 0-0.5 0.9-1 2-1 1.1 0 2-0.7 2-1.5 0-0.8 0.9-1.5 2-1.5q2 0 2-2 0-2 2-2c1.1 0 2-0.5 2-1 0-0.5 0.9-1 2-1 1.1 0 2-0.7 2-1.5 0-0.8 0.9-1.5 2-1.5 1.1 0 2-0.5 2-1 0-0.5 0.9-1 2-1 1.5 0 2-0.7 2-2.5 0-1.8 0.5-2.5 2-2.5 1.1 0 2-0.5 2-1 0-0.5 0.9-1 2-1 1.1 0 2-0.7 2-1.5 0-0.8 0.9-1.5 2-1.5q2 0 2-2 0-2 2-2c1.1 0 2-0.5 2-1 0-0.5 0.9-1 2-1 1.1 0 2-0.7 2-1.5 0-0.8 0.9-1.5 2-1.5 1.1 0 2-0.5 2-1 0-0.5 0.9-1 2-1 1.5 0 2-0.7 2-2.5 0-1.8 0.5-2.5 2-2.5 1.1 0 2-0.5 2-1 0-0.5 0.9-1 2-1 1.1 0 2-0.7 2-1.5 0-0.8 0.9-1.5 2-1.5q2 0 2-2 0-2 2-2c1.1 0 2-0.5 2-1 0-0.5 0.9-1 2-1 1.1 0 2-0.7 2-1.5 0-0.8 0.9-1.5 2-1.5 1.1 0 2-0.5 2-1 0-0.5 0.9-1 2-1 1.5 0 2-0.7 2-2.5 0-1.8 0.5-2.5 2-2.5 1.1 0 2-0.5 2-1 0-0.5 0.9-1 2-1 1.1 0 2-0.7 2-1.5 0-0.8 0.9-1.5 2-1.5q2 0 2-2 0-2 2-2c1.1 0 2-0.5 2-1 0-0.5 0.9-1 2-1 1.1 0 2-0.7 2-1.5 0-0.8 0.9-1.5 2-1.5 1.1 0 2-0.5 2-1 0-0.5 0.9-1 2-1 1.5 0 2-0.7 2-2.5 0-1.8 0.5-2.5 2-2.5 1.1 0 2-0.5 2-1 0-0.5 0.9-1 2-1 1.1 0 2-0.7 2-1.5 0-0.8 0.9-1.5 2-1.5q2 0 2-2 0-2 2-2c1.1 0 2-0.5 2-1 0-0.5 0.9-1 2-1 1.1 0 2-0.7 2-1.5 0-0.8 0.9-1.5 2-1.5 1.1 0 2-0.5 2-1 0-0.5 0.9-1 2-1 1.5 0 2-0.7 2-2.5 0-1.8 0.5-2.5 2-2.5 1.1 0 2-0.5 2-1 0-0.5 0.9-1 2-1 1.1 0 2-0.7 2-1.5 0-0.8 0.9-1.5 2-1.5q2 0 2-2 0-2 2-2c1.1 0 2-0.5 2-1 0-0.5 0.9-1 2-1 1.1 0 2-0.7 2-1.5 0-0.8 0.9-1.5 2-1.5 1.1 0 2-0.5 2-1 0-0.5 0.9-1 2-1 1.5 0 2-0.7 2-2.5 0-1.8 0.5-2.5 2-2.5 1.1 0 2-0.5 2-1 0-0.5 0.9-1 2-1 1.1 0 2-0.7 2-1.5 0-0.8 0.9-1.5 2-1.5q2 0 2-2 0-2 2-2c1.1 0 2-0.7 2-1.5 0-0.8 0.9-1.5 2-1.5 1.1 0 2-0.5 2-1 0-0.5 0.9-1 2-1q2 0 2-2 0-2 2-2c1.1 0 2-0.7 2-1.5 0-0.8 0.9-1.5 2-1.5 1.1 0 2-0.5 2-1 0-0.5 0.9-1 2-1 1.1 0 2-0.7 2-1.5 0-0.8 0.9-1.5 2-1.5q2 0 2-2 0-2 2-2c1.1 0 2-0.7 2-1.5 0-0.8 0.9-1.5 2-1.5 1.1 0 2-0.5 2-1 0-0.5 0.9-1 2-1q2 0 2-2 0-2 2-2c1.1 0 2-0.7 2-1.5 0-0.8 0.9-1.5 2-1.5 1.1 0 2-0.5 2-1 0-0.5 0.9-1 2-1 1.1 0 2-0.7 2-1.5 0-0.8 0.9-1.5 2-1.5q2 0 2-2 0-2 2-2c1.1 0 2-0.7 2-1.5 0-0.8 0.9-1.5 2-1.5 1.1 0 2-0.5 2-1 0-0.5 0.9-1 2-1q2 0 2-2 0-2 2-2c1.1 0 2-0.7 2-1.5 0-0.8 0.9-1.5 2-1.5 1.1 0 2-0.5 2-1 0-0.5 0.9-1 2-1 1.1 0 2-0.7 2-1.5 0-0.8 0.9-1.5 2-1.5q2 0 2-2 0-2 2-2c1.1 0 2-0.7 2-1.5 0-0.8 0.9-1.5 2-1.5 1.1 0 2-0.5 2-1 0-0.5 0.9-1 2-1q2 0 2-2 0-2 2-2c1.1 0 2-0.7 2-1.5 0-0.8 0.9-1.5 2-1.5 1.1 0 2-0.5 2-1 0-0.5 0.9-1 2-1 1.1 0 2-0.7 2-1.5 0-0.8 0.9-1.5 2-1.5q2 0 2-2 0-2 2-2c1.1 0 2-0.7 2-1.5 0-0.8 0.9-1.5 2-1.5 1.1 0 2-0.5 2-1 0-0.5 0.9-1 2-1q2 0 2-2 0-2 2-2c1.1 0 2-0.7 2-1.5 0-0.8 0.9-1.5 2-1.5q2 0 2-2c0-1.6 0.8-2.1 4-2.5 3.2-0.4 4-0.9 4-2.5q0-2 2-2c1.1 0 2-0.7 2-1.5 0-0.8 0.9-1.5 2-1.5 1.1 0 2-0.5 2-1 0-0.5 0.9-1 2-1q2 0 2-2 0-2 2-2c1.1 0 2-0.7 2-1.5 0-0.8 0.9-1.5 2-1.5q2 0 2-2c0-1.6 0.8-2.1 4-2.5 3.7-0.5 4-0.8 4-3.5 0-2.8 0.3-3 4-3.5 3.2-0.4 4-0.9 4-2.5q0-2 2-2c1.1 0 2-0.5 2-1 0-0.5 0.9-1 2-1 1.5 0 2-0.7 2-2.5 0-1.8 0.5-2.5 2-2.5 1.1 0 2-0.5 2-1 0-0.5 0.9-1 2-1 1.1 0 2-0.7 2-1.5 0-0.8 0.9-1.5 2-1.5q2 0 2-2 0-2 2-2c1.1 0 2-0.7 2-1.5 0-0.8 0.9-1.5 2-1.5q2 0 2-2c0-1.6 0.8-2.1 4-2.5 3.7-0.5 4-0.8 4-3.5 0-2.3 0.4-3 2-3 1.1 0 2-0.7 2-1.5 0-0.8 0.9-1.5 2-1.5 1.9 0 2-0.7 2-9 0-8.3-0.1-9-2-9-1.6 0-2-0.7-2-3.5 0-2.8-0.4-3.5-2-3.5-1.7 0-2-0.7-2-4 0-3.3-0.3-4-2-4-1.6 0-2-0.7-2-3 0-2.3-0.4-3-2-3-1.5 0-2-0.7-2-2.5 0-1.8-0.5-2.5-2-2.5-1.6 0-2-0.7-2-3.5 0-2.8-0.4-3.5-2-3.5-1.6 0-2-0.7-2-3.5 0-2.8-0.4-3.5-2-3.5-1.5 0-2-0.7-2-2.5 0-1.8-0.5-2.5-2-2.5-1.6 0-2-0.7-2-3.5 0-2.8-0.4-3.5-2-3.5-1.7 0-2-0.7-2-4.5 0-3.8-0.3-4.5-2-4.5-1.5 0-2-0.7-2-2.5 0-1.8-0.5-2.5-2-2.5-1.5 0-2-0.7-2-2.5 0-1.8-0.5-2.5-2-2.5-1.6 0-2-0.7-2-3 0-2.3-0.4-3-2-3-1.7 0-2-0.7-2-4 0-3.3-0.3-4-2-4-1.6 0-2-0.7-2-3.5 0-2.8-0.4-3.5-2-3.5-1.6 0-2-0.7-2-3 0-2.3-0.4-3-2-3-1.7 0-2-0.7-2-4 0-3.3-0.3-4-2-4-1.6 0-2-0.7-2-3 0-2.3-0.4-3-2-3-1.6 0-2-0.7-2-3.5 0-2.8-0.4-3.5-2-3.5-1.5 0-2-0.7-2-2.5 0-1.8-0.5-2.5-2-2.5-1.7 0-2-0.7-2-4.5 0-3.8-0.3-4.5-2-4.5-1.6 0-2-0.7-2-3.5 0-2.8-0.4-3.5-2-3.5-1.5 0-2-0.7-2-2.5 0-1.8-0.5-2.5-2-2.5-1.7 0-2-0.7-2-4.5 0-3.8-0.3-4.5-2-4.5-1.6 0-2-0.7-2-3.5 0-2.8-0.4-3.5-2-3.5-1.5 0-2-0.7-2-2.5 0-1.8-0.5-2.5-2-2.5-1.6 0-2-0.7-2-3.5 0-2.8-0.4-3.5-2-3.5-1.7 0-2-0.7-2-5 0-4.3-0.3-5-2-5-1.6 0-2-0.7-2-3 0-2.3-0.4-3-2-3-1.6 0-2-0.7-2-3.5 0-2.8-0.4-3.5-2-3.5-1.7 0-2-0.7-2-4 0-3.3-0.3-4-2-4q-2 0-2-2c0-2-0.7-2-76-2-41.8 0-76.1-0.4-76.3-0.9-0.1-0.4-75.7-1.1-168-1.4l-167.8-0.6zm824 422.5c0 0.5-1.8 1.2-4 1.5-2.2 0.2-4 0.9-4 1.5 0 0.5-0.9 1-2 1-1.4 0-2 0.6-2 2.5 0 1.8-0.5 2.5-2 2.5q-2 0-2 2 0 2-2 2c-1.1 0-2 0.6-2 1.5 0 0.8-0.9 1.5-2 1.5-1.6 0-2 0.6-2 3.5 0 2.8-0.3 3.5-2 3.5-1.5 0-2 0.6-2 3 0 2.3-0.4 3-2 3-1.4 0-2 0.6-2 2.5 0 1.8-0.5 2.5-2 2.5-1.6 0-2 0.6-2 3.5 0 2.8-0.3 3.5-2 3.5-1.7 0-2 0.6-2 4.5 0 3.8-0.3 4.5-2 4.5-1.6 0-2 0.6-2 3.5 0 2.8-0.3 3.5-2 3.5-1.6 0-2 0.6-2 3.5 0 2.8-0.3 3.5-2 3.5-1.7 0-2 0.6-2 5 0 4.3-0.2 5-2 5-1.4 0-2 0.6-2 2.5 0 1.8-0.5 2.5-2 2.5-1.6 0-2 0.6-2 3.5 0 2.8-0.3 3.5-2 3.5-1.6 0-2 0.6-2 3.5 0 2.8-0.3 3.5-2 3.5-1.7 0-2 0.6-2 4.5 0 3.8-0.3 4.5-2 4.5-1.6 0-2 0.6-2 3.5 0 2.8-0.3 3.5-2 3.5-1.4 0-2 0.6-2 2.5 0 1.8-0.5 2.5-2 2.5-1.7 0-2 0.6-2 4.5 0 3.8-0.3 4.5-2 4.5-1.4 0-2 0.6-2 2.5 0 1.8-0.5 2.5-2 2.5-1.6 0-2 0.6-2 3.5 0 2.8-0.3 3.5-2 3.5-1.5 0-2 0.6-2 3 0 2.3-0.4 3-2 3-1.6 0-2 0.6-2 4 0 3.3-0.3 4-2 4-1.5 0-2 0.6-2 3 0 2.3-0.4 3-2 3-1.4 0-2 0.6-2 2.5 0 1.8-0.5 2.5-2 2.5-1.7 0-2 0.6-2 4.5 0 3.8-0.3 4.5-2 4.5-1.4 0-2 0.6-2 2.5 0 1.8-0.5 2.5-2 2.5-1.4 0-2 0.6-2 2.5 0 1.8-0.5 2.5-2 2.5-1.4 0-2 0.6-2 2.5 0 1.8-0.5 2.5-2 2.5-1.7 0-2 0.6-2 4.5 0 3.8-0.3 4.5-2 4.5-1.6 0-2 0.6-2 3.5 0 2.8-0.3 3.5-2 3.5-1.4 0-2 0.6-2 2.5 0 1.8-0.5 2.5-2 2.5-1.7 0-2 0.6-2 5.5 0 4.8-0.2 5.5-2 5.5-1.6 0-2 0.6-2 3.5 0 2.8-0.3 3.5-2 3.5-1.4 0-2 0.6-2 2.5 0 1.8-0.5 2.5-2 2.5-1.4 0-2 0.6-2 2.5 0 1.8-0.5 2.5-2 2.5-1.7 0-2 0.6-2 4.5 0 3.8-0.3 4.5-2 4.5-1.4 0-2 0.6-2 2.5 0 1.8-0.5 2.5-2 2.5-1.5 0-2 0.6-2 3 0 2.3-0.4 3-2 3-1.6 0-2 0.6-2 4 0 3.3-0.3 4-2 4-1.5 0-2 0.6-2 3 0 2.3-0.4 3-2 3-1.6 0-2 0.6-2 3.5 0 2.8-0.3 3.5-2 3.5-1.4 0-2 0.6-2 2.5 0 1.8-0.5 2.5-2 2.5-1.7 0-2 0.6-2 4.5 0 3.8-0.3 4.5-2 4.5-1.6 0-2 0.6-2 3.5 0 2.8-0.3 3.5-2 3.5-1.6 0-2 0.6-2 3.5 0 2.8-0.3 3.5-2 3.5-1.7 0-2 0.6-2 5 0 4.3-0.2 5-2 5-1.6 0-2 0.6-2 3.5 0 2.8-0.3 3.5-2 3.5-1.4 0-2 0.6-2 2.5 0 1.8-0.5 2.5-2 2.5-1.5 0-2 0.6-2 3 0 2.3-0.4 3-2 3-1.6 0-2 0.6-2 3.5 0 2.8-0.3 3.5-2 3.5-1.1 0-2 0.6-2 1.5 0 0.8-0.9 1.5-2 1.5q-2 0-2 2 0 2-2 2c-1.6 0-2 0.6-2 3.5 0 2.8-0.3 3.5-2 3.5-1.6 0-2 0.6-2 3.5 0 2.8-0.3 3.5-2 3.5-1.8 0-2 0.6-2 9.5 0 8.8-0.1 9.5-2 9.5-1.4 0-2 0.6-2 2.5 0 1.8 0.6 2.5 2 2.5 1.9 0 2 0.6 2 12.5 0 11.8 0.1 12.5 2 12.5 1.8 0 2 0.6 2 5 0 4.3 0.3 5 2 5 1.8 0 2 0.6 2 7 0 6.3 0.2 7 2 7 1.7 0 2 0.6 2 3.5 0 2.8 0.4 3.5 2 3.5 1.7 0 2 0.6 2 4.5 0 3.8 0.3 4.5 2 4.5 1.7 0 2 0.6 2 4.5 0 3.8 0.3 4.5 2 4.5 1.7 0 2 0.6 2 3.5 0 2.8 0.4 3.5 2 3.5 1.5 0 2 0.6 2 2.5 0 1.8 0.6 2.5 2 2.5 1.5 0 2 0.6 2 2.5 0 1.8 0.6 2.5 2 2.5 1.7 0 2 0.6 2 4.5 0 3.8 0.3 4.5 2 4.5 1.5 0 2 0.6 2 2.5 0 1.8 0.6 2.5 2 2.5 1.5 0 2 0.6 2 2.5 0 1.8 0.6 2.5 2 2.5 1.7 0 2 0.6 2 3.5 0 2.8 0.4 3.5 2 3.5 1.7 0 2 0.6 2 3.5 0 2.8 0.4 3.5 2 3.5 1.6 0 2 0.6 2 3 0 2.3 0.5 3 2 3 1.5 0 2 0.6 2 2.5 0 1.8 0.6 2.5 2 2.5 1.7 0 2 0.6 2 4.5 0 3.8 0.3 4.5 2 4.5 1.5 0 2 0.6 2 2.5 0 1.8 0.6 2.5 2 2.5 1.5 0 2 0.6 2 2.5 0 1.8 0.6 2.5 2 2.5 1.7 0 2 0.6 2 4.5 0 3.8 0.3 4.5 2 4.5 1.7 0 2 0.6 2 3.5 0 2.8 0.4 3.5 2 3.5 1.5 0 2 0.6 2 2.5 0 1.8 0.6 2.5 2 2.5 1.5 0 2 0.6 2 2.5 0 1.8 0.6 2.5 2 2.5 1.7 0 2 0.6 2 4.5 0 3.8 0.3 4.5 2 4.5 1.7 0 2 0.6 2 3.5 0 2.8 0.4 3.5 2 3.5 1.5 0 2 0.6 2 2.5 0 1.8 0.6 2.5 2 2.5 1.7 0 2 0.6 2 4.5 0 3.8 0.3 4.5 2 4.5 1.7 0 2 0.6 2 3.5 0 2.8 0.4 3.5 2 3.5 1.5 0 2 0.6 2 2.5 0 1.8 0.6 2.5 2 2.5 1.7 0 2 0.6 2 3.5 0 2.8 0.4 3.5 2 3.5 1.7 0 2 0.6 2 4.5 0 3.8 0.3 4.5 2 4.5 1.5 0 2 0.6 2 2.5 0 1.8 0.6 2.5 2 2.5 1.6 0 2 0.6 2 3 0 2.3 0.5 3 2 3 1.8 0 2 0.6 2 5 0 4.3 0.3 5 2 5 1.5 0 2 0.6 2 2.5 0 1.8 0.6 2.5 2 2.5 1.6 0 2 0.6 2 3 0 2.3 0.5 3 2 3 1.7 0 2 0.6 2 3.5 0 2.8 0.4 3.5 2 3.5 1.7 0 2 0.6 2 4 0 3.3 0.4 4 2 4 1.7 0 2 0.6 2 3.5 0 2.8 0.4 3.5 2 3.5 1.6 0 2 0.6 2 3 0 2.3 0.5 3 2 3 1.7 0 2 0.6 2 4 0 3.3 0.4 4 2 4 1.7 0 2 0.6 2 3.5 0 2.8 0.4 3.5 2 3.5 1.7 0 2 0.6 2 3.5 0 2.8 0.4 3.5 2 3.5 1.6 0 2 0.6 2 3 0 2.3 0.5 3 2 3 1.7 0 2 0.6 2 4 0 3.3 0.4 4 2 4 1.7 0 2 0.6 2 3.5 0 2.8 0.4 3.5 2 3.5 1.7 0 2 0.6 2 3.5 0 2.8 0.4 3.5 2 3.5 1.7 0 2 0.6 2 4.5 0 3.8 0.3 4.5 2 4.5 1.5 0 2 0.6 2 2.5 0 1.8 0.6 2.5 2 2.5 1.6 0 2 0.6 2 3 0 2.3 0.5 3 2 3 1.1 0 2 0.6 2 1.5 0 0.8 0.9 1.5 2 1.5 1.5 0 2 0.6 2 2.5 0 1.8 0.6 2.5 2 2.5 1.1 0 2 0.4 2 1 0 0.5 0.9 1 2 1 1.1 0 2 0.4 2 1 0 0.5 0.9 1 2 1 1.1 0 2.1 0.4 2.3 1 0.1 0.6 2.8 1.4 6 1.8 3.2 0.3 5.8 1 5.7 1.4 0 0.4 1.8 0.8 4 0.8 2.2 0 4 0.4 4 1 0 0.6 4 1 10 1 6 0 10 0.4 10 1 0 0.6 36 1 106 1 70 0 106-0.4 106-1 0-0.7 30-1 88-1 58 0 88-0.4 88-1 0-0.6 4-1 10-1 6 0 10-0.4 10-1 0-0.6 0.9-1 2-1 1.7 0 2-0.7 2-3.5 0-2.9 0.4-3.5 2-3.5 1.5 0 2-0.7 2-2.5 0-1.9 0.6-2.5 2-2.5 1.5 0 2-0.7 2-2.5 0-1.9 0.6-2.5 2-2.5 1.7 0 2-0.7 2-4.5 0-3.9 0.3-4.5 2-4.5 1.7 0 2-0.7 2-3.5 0-2.9 0.4-3.5 2-3.5 1.5 0 2-0.7 2-2.5 0-1.9 0.6-2.5 2-2.5 1.7 0 2-0.7 2-4.5 0-3.9 0.3-4.5 2-4.5 1.5 0 2-0.7 2-2.5 0-1.9 0.6-2.5 2-2.5 1.7 0 2-0.7 2-3.5 0-2.9 0.4-3.5 2-3.5 1.5 0 2-0.7 2-2.5 0-1.9 0.6-2.5 2-2.5 1.7 0 2-0.7 2-4.5 0-3.9 0.3-4.5 2-4.5 1.5 0 2-0.7 2-2.5 0-1.9 0.6-2.5 2-2.5 1.7 0 2-0.7 2-3.5 0-2.9 0.4-3.5 2-3.5 1.7 0 2-0.7 2-4.5 0-3.9 0.3-4.5 2-4.5 1.5 0 2-0.7 2-2.5 0-1.9 0.6-2.5 2-2.5 1.6 0 2-0.7 2-3 0-2.4 0.5-3 2-3 1.7 0 2-0.7 2-3.5 0-2.9 0.4-3.5 2-3.5 1.7 0 2-0.7 2-4 0-3.4 0.4-4 2-4 1.6 0 2-0.7 2-3 0-2.4 0.5-3 2-3 1.5 0 2-0.7 2-2.5 0-1.9 0.6-2.5 2-2.5 1.7 0 2-0.7 2-4.5 0-3.9 0.3-4.5 2-4.5 1.7 0 2-0.7 2-3.5 0-2.9 0.4-3.5 2-3.5 1.5 0 2-0.7 2-2.5 0-1.9 0.6-2.5 2-2.5 1.5 0 2-0.7 2-2.5 0-1.9 0.6-2.5 2-2.5 1.7 0 2-0.7 2-4.5 0-3.9 0.3-4.5 2-4.5 1.7 0 2-0.7 2-3.5 0-2.9 0.4-3.5 2-3.5 1.5 0 2-0.7 2-2.5 0-1.9 0.6-2.5 2-2.5 1.7 0 2-0.7 2-4.5 0-3.9 0.3-4.5 2-4.5 1.7 0 2-0.7 2-3.5 0-2.9 0.4-3.5 2-3.5 1.5 0 2-0.7 2-2.5 0-1.9 0.6-2.5 2-2.5 1.5 0 2-0.7 2-2.5 0-1.9 0.6-2.5 2-2.5 1.8 0 2-0.7 2-5.5 0-4.9 0.3-5.5 2-5.5 1.5 0 2-0.7 2-2.5 0-1.9 0.6-2.5 2-2.5 1.5 0 2-0.7 2-2.5 0-1.9 0.6-2.5 2-2.5 1.7 0 2-0.7 2-4.5 0-3.9 0.3-4.5 2-4.5 1.7 0 2-0.7 2-3.5 0-2.9 0.4-3.5 2-3.5 1.5 0 2-0.7 2-2.5 0-1.9 0.6-2.5 2-2.5 1.7 0 2-0.7 2-3.5 0-2.9 0.4-3.5 2-3.5 1.7 0 2-0.7 2-4.5 0-3.9 0.3-4.5 2-4.5 1.5 0 2-0.7 2-2.5 0-1.9 0.6-2.5 2-2.5 1.7 0 2-0.7 2-3.5 0-2.9 0.4-3.5 2-3.5 1.7 0 2-0.7 2-4.5 0-3.9 0.3-4.5 2-4.5 1.7 0 2-0.7 2-3.5 0-2.9 0.4-3.5 2-3.5 1.5 0 2-0.7 2-2.5 0-1.9 0.6-2.5 2-2.5 1.7 0 2-0.7 2-3.5 0-2.9 0.4-3.5 2-3.5 1.7 0 2-0.7 2-4.5 0-3.9 0.3-4.5 2-4.5 1.7 0 2-0.7 2-3.5 0-2.9 0.4-3.5 2-3.5 1.5 0 2-0.7 2-2.5 0-1.9 0.6-2.5 2-2.5 1.8 0 2-0.7 2-5.5 0-4.9 0.3-5.5 2-5.5 1.5 0 2-0.7 2-2.5 0-1.9 0.6-2.5 2-2.5 1.7 0 2-0.7 2-3.5 0-2.9 0.4-3.5 2-3.5 1.7 0 2-0.7 2-3.5 0-2.9 0.4-3.5 2-3.5 1.7 0 2-0.7 2-4.5 0-3.9 0.3-4.5 2-4.5 1.7 0 2-0.7 2-3.5 0-2.9 0.4-3.5 2-3.5 1.9 0 2-0.7 2-14 0-13.4-0.1-14-2-14-1.7 0-2-0.7-2-4.5 0-3.9-0.3-4.5-2-4.5-1.6 0-2-0.7-2-4 0-3.4-0.3-4-2-4-1.6 0-2-0.7-2-3.5 0-2.9-0.3-3.5-2-3.5-1.5 0-2-0.7-2-3 0-2.4-0.4-3-2-3-1.4 0-2-0.7-2-2.5 0-1.9-0.5-2.5-2-2.5-1.7 0-2-0.7-2-4.5 0-3.9-0.3-4.5-2-4.5-1.4 0-2-0.7-2-2.5 0-1.9-0.5-2.5-2-2.5-1.6 0-2-0.7-2-3.5 0-2.9-0.3-3.5-2-3.5-1.7 0-2-0.7-2-4.5 0-3.9-0.3-4.5-2-4.5-1.6 0-2-0.7-2-3.5 0-2.9-0.3-3.5-2-3.5-1.6 0-2-0.7-2-3.5 0-2.9-0.3-3.5-2-3.5-1.4 0-2-0.7-2-2.5 0-1.9-0.5-2.5-2-2.5-1.7 0-2-0.7-2-5 0-4.4-0.2-5-2-5-1.5 0-2-0.7-2-3 0-2.4-0.4-3-2-3-1.6 0-2-0.7-2-3.5 0-2.9-0.3-3.5-2-3.5-1.6 0-2-0.7-2-4 0-3.4-0.3-4-2-4-1.6 0-2-0.7-2-3.5 0-2.9-0.3-3.5-2-3.5-1.5 0-2-0.7-2-3 0-2.4-0.4-3-2-3-1.6 0-2-0.7-2-3.5 0-2.9-0.3-3.5-2-3.5-1.6 0-2-0.7-2-4 0-3.4-0.3-4-2-4-1.5 0-2-0.7-2-3 0-2.4-0.4-3-2-3-1.6 0-2-0.7-2-3.5 0-2.9-0.3-3.5-2-3.5-1.6 0-2-0.7-2-3.5 0-2.9-0.3-3.5-2-3.5-1.6 0-2-0.7-2-3.5 0-2.9-0.3-3.5-2-3.5-1.4 0-2-0.7-2-2.5 0-1.9-0.5-2.5-2-2.5-1.4 0-2-0.7-2-2.5 0-1.9-0.5-2.5-2-2.5-1.7 0-2-0.7-2-5.5 0-4.9-0.2-5.5-2-5.5-1.4 0-2-0.7-2-2.5 0-1.9-0.5-2.5-2-2.5-1.4 0-2-0.7-2-2.5 0-1.9-0.5-2.5-2-2.5-1.7 0-2-0.7-2-5.5 0-4.9-0.2-5.5-2-5.5-1.4 0-2-0.7-2-2.5 0-1.9-0.5-2.5-2-2.5-1.6 0-2-0.7-2-3.5 0-2.9-0.3-3.5-2-3.5-1.4 0-2-0.7-2-2.5 0-1.9-0.5-2.5-2-2.5-1.7 0-2-0.7-2-5.5 0-4.9-0.2-5.5-2-5.5-1.4 0-2-0.7-2-2.5 0-1.9-0.5-2.5-2-2.5-1.6 0-2-0.7-2-3.5 0-2.9-0.3-3.5-2-3.5-1.7 0-2-0.7-2-4.5 0-3.9-0.3-4.5-2-4.5-1.6 0-2-0.7-2-3.5 0-2.9-0.3-3.5-2-3.5-1.6 0-2-0.7-2-3.5 0-2.9-0.3-3.5-2-3.5-1.6 0-2-0.7-2-3.5 0-2.9-0.3-3.5-2-3.5-1.6 0-2-0.7-2-4 0-3.4-0.3-4-2-4-1.6 0-2-0.7-2-3.5 0-2.9-0.3-3.5-2-3.5-1.6 0-2-0.7-2-3.5 0-2.9-0.3-3.5-2-3.5-1.7 0-2-0.7-2-5.5 0-4.9-0.2-5.5-2-5.5-1.4 0-2-0.7-2-2.5 0-1.9-0.5-2.5-2-2.5-1.4 0-2-0.7-2-2.5 0-1.9-0.5-2.5-2-2.5-1.5 0-2-0.7-2-3 0-2.4-0.4-3-2-3-1.6 0-2-0.7-2-3.5 0-3.4-0.2-3.6-4-4-3.1-0.4-4-1-4-2.5q0-2-2-2c-1.1 0-2-0.7-2-1.5 0-0.9-0.9-1.5-2-1.5-1.1 0-2-0.5-2-1 0-0.6-0.9-1-2-1-1.1 0-2-0.5-2-1 0-0.6-1.8-1-4-1-2.2 0-4-0.5-4-1 0-0.6-3.6-1.3-8-1.5-4.4-0.3-8-1-8-1.5 0-0.6-3.3-1-8-1-4.6 0-8-0.5-8-1 0-0.7-6.6-1-18-1-9.9 0-18-0.4-18-0.8 0-0.4-36.8-1.1-81.7-1.5-49.3-0.5-81.9-1.2-82-1.8-0.2-0.6-10.9-0.9-26.3-0.9-16.6 0-26-0.4-26-1 0-0.7-8.6-1-24-1-13.2 0-24-0.4-24-0.8 0-0.4-14.2-1.1-31.7-1.6-17.9-0.4-31.9-1.2-32-1.7-0.2-0.5-8.9-0.9-20.3-0.9-12.6 0-20 0.3-20 1zm-748 654c0 0.6-20 1-58 1-38 0-58 0.3-58 1 0 0.6-6 1-16 1-10 0-16 0.3-16 1 0 0.5-1.7 1-3.7 1-2.1 0-6.6 0.3-10 0.7-5 0.6-6.3 1.1-6.3 2.5 0 1.1-0.7 1.8-2 1.8-1.7 0-2 0.6-2 4.5 0 3.8-0.3 4.5-2 4.5-1.8 0-2 0.6-2 8.5 0 7.8 0.2 8.5 2 8.5 1.7 0 2 0.6 2 3.5 0 2.8 0.4 3.5 2 3.5 1.1 0 2 0.4 2 1 0 0.5 0.9 1 2 1 1.1 0 2.2 0.5 2.4 1.2 0.2 0.9 4.9 1.3 18 1.5 10.9 0.2 17.6 0.6 17.6 1.3 0 0.6 12.7 1 36 1 23.4 0 36 0.3 36 1 0 0.6 18.7 1 54 1 35.1 0 54.1 0.3 54.3 1 0.2 0.6 70.3 1 205.7 1.2 163.6 0.2 205.4 0 205.7-1 0.2-0.9 2.8-1.2 8.3-1.2 4.7 0 8-0.5 8-1 0-0.6 1.8-1 4-1 2.2 0 4-0.5 4-1 0-0.6 1.8-1.3 4-1.5 2.2-0.3 4-1 4-1.5 0-0.6 0.9-1 2-1q2 0 2-2 0-2 2-2c1.1 0 2-0.7 2-1.5 0-0.9 0.9-1.5 2-1.5 1.7 0 2-0.7 2-3.5 0-2.9 0.4-3.5 2-3.5 1.7 0 2-0.7 2-3.5 0-2.9-0.3-3.5-2-3.5-1.7 0-2-0.7-2-4.5 0-3.9-0.3-4.5-2-4.5-1.1 0-2-0.7-2-1.5 0-0.9-0.9-1.5-2-1.5-1.1 0-2-0.5-2-1 0-0.6-0.9-1-2-1-1.1 0-2-0.5-2-1 0-0.6-2.6-1-6-1-3.4 0-6.1-0.5-6.2-1.1-0.2-0.7-9.9-1.3-28-1.7-15.3-0.4-27.8-1.1-27.8-1.5 0-0.4-20.7-0.7-46-0.7-30 0-46-0.4-46-1 0-0.7-41.3-1-122-1-80.6 0-122-0.4-122-1 0-0.7-16-1-46-1-30 0-46 0.3-46 1zm-156 161c0 0.6-8.6 1-24 1-15.3 0-24 0.3-24 1 0 0.6-4 1-10 1-5.5 0-10 0.3-10 0.7 0 0.4-3.4 1-7.7 1.4-4.4 0.4-7.9 1.1-8 1.7-0.2 0.7-1.2 1.2-2.3 1.2-1.7 0-2 0.6-2 5.5 0 4.8-0.2 5.5-2 5.5-1.9 0-2 0.6-2 15.5 0 14.8 0.1 15.5 2 15.5 1.5 0 2 0.6 2 2.5v2.5c206 0 248 0.3 248 1 0 0.6 84.7 1 252 1 138.6 0 252-0.4 252-0.8 0-0.4 10.7-1.1 23.8-1.5 14.5-0.4 23.8-1.1 24-1.7 0.1-0.6 2-1 4.2-1 2.2 0 4-0.5 4-1 0-0.6 0.9-1 2-1 1.1 0 2-0.7 2-1.5 0-0.9 0.9-1.5 2-1.5q2 0 2-2 0-2 2-2c1.5 0 2-0.7 2-2.5 0-1.9 0.6-2.5 2-2.5 1.5 0 2-0.7 2-2.5 0-1.9 0.6-2.5 2-2.5 1.9 0 2-0.7 2-8 0-7.4-0.1-8-2-8q-2 0-2-2c0-1.6-0.8-2.1-4-2.5-2.2-0.3-4-1-4-1.5 0-0.6-0.9-1-2-1-1.1 0-2-0.5-2-1 0-0.6-1.8-1-4-1-2.2 0-4.1-0.5-4.2-1-0.2-0.5-6.5-1.3-14-1.7-7.6-0.5-13.8-1.2-13.8-1.6 0-0.4-6.3-0.7-14-0.7-8.6 0-14-0.4-14-1 0-0.7-9.3-1-26-1-16.6 0-26-0.4-26-1 0-0.7-102-1-304-1-202 0-304 0.3-304 1zm92 175c0 0.6-14.6 1-42 1-27.3 0-42 0.3-42 1 0 0.6-4 1-10 1-6 0-10 0.4-10 1 0 0.5-0.9 1-2 1-1.6 0-2 0.6-2 4 0 3.3-0.3 4-2 4-1.8 0-2 0.6-2 11.5 0 10.8 0.2 11.5 2 11.5 1.5 0 2 0.6 2 2.5 0 1.8 0.6 2.5 2 2.5 1.1 0 2 0.4 2 1 0 0.5 1.8 1 4 1 2.2 0 4 0.4 4 1 0 0.5 2.7 1 6 1 4 0 6.1 0.4 6.4 1.2 0.2 1 8.1 1.3 34 1.5 21.6 0.2 33.6 0.6 33.6 1.3 0 0.6 56 1 166 1 91.3 0 166-0.4 166-0.8 0-0.4 43.1-1.1 95.8-1.4 65.1-0.5 95.8-1.1 96-1.8 0.1-0.6 4.1-1 10.2-1 6 0 10-0.4 10-1 0-0.6 2.7-1 6-1 3.4 0 6-0.5 6-1 0-0.6 1.8-1 4-1 2.9 0 4-0.5 4-1.5 0-0.9 0.9-1.5 2-1.5 1.1 0 2-0.5 2-1 0-0.6 0.9-1 2-1 1.1 0 2-0.7 2-1.5 0-0.9 0.9-1.5 2-1.5 1.7 0 2-0.7 2-3.5 0-2.9 0.4-3.5 2-3.5 1.9 0 2-0.7 2-9v-9c-15.7 0-20.1-0.5-20.2-1-0.2-0.6-21-1.3-56.2-1.7-30.8-0.4-55.9-1-55.8-1.5 0.1-0.5-22.3-0.8-49.8-0.8-32.6 0-50-0.4-50-1 0-0.7-31.3-1-92-1-60.6 0-92-0.4-92-1 0-0.7-25.3-1-74-1-48.6 0-74 0.3-74 1zm8 147c0 0.5-0.9 1-2 1q-2 0-2 2 0 2-2 2c-1.1 0-2 0.6-2 1.5 0 0.8-0.9 1.5-2 1.5q-2 0-2 2 0 2-2 2c-1.4 0-2 0.6-2 2.5 0 1.8-0.5 2.5-2 2.5-1.7 0-2 0.6-2 4.5 0 3.8-0.3 4.5-2 4.5-1.8 0-2 0.6-2 8.5 0 7.8 0.2 8.5 2 8.5 1.7 0 2 0.6 2 3.5 0 2.8 0.4 3.5 2 3.5q2 0 2 2c0 1.5 0.9 2.1 4 2.5 2.2 0.2 4 0.9 4 1.5 0 0.5 0.9 1 2 1 1.1 0 2 0.4 2 1 0 0.5 1.8 1 4 1 2.2 0 4.1 0.5 4.3 1.1 0.2 0.7 8.1 1.3 24 1.7 13.1 0.4 23.7 1 23.7 1.4 0 0.4 73.8 0.8 164 0.8 90.2 0 164-0.4 164-0.8 0-0.4 10.7-1 23.8-1.4 15.9-0.4 23.8-1 24-1.7 0.1-0.6 2-1.1 4.2-1.1 2.2 0 4-0.5 4-1 0-0.6 0.9-1 2-1 1.1 0 2-0.5 2-1 0-0.6 0.9-1 2-1 1.1 0 2-0.7 2-1.5 0-0.9 0.9-1.5 2-1.5q2 0 2-2 0-2 2-2c1.5 0 2-0.7 2-2.5 0-1.9 0.6-2.5 2-2.5 1.9 0 2-0.7 2-8.5 0-7.9-0.1-8.5-2-8.5-1.5 0-2-0.7-2-3 0-2.4-0.4-3-2-3-1.1 0-2-0.7-2-1.5 0-0.9-0.9-1.5-2-1.5-1.6 0-2-0.7-2-3.5 0-2.9-0.3-3.5-2-3.5-1.1 0-2-0.5-2-1 0-0.6-0.9-1-2-1-1.1 0-2-0.7-2-1.5 0-0.9-0.9-1.5-2-1.5-1.1 0-2-0.5-2-1 0-0.6-0.9-1-2-1q-2 0-2-2c0-1.9-0.6-2-10-2-6 0-10 0.4-10 1 0 0.5-1.8 1-4 1-2.2 0-4 0.4-4 1 0 0.5-2.6 1-6 1-3.5 0-6.1 0.4-6.2 1.1-0.2 0.7-17.1 1.2-56 1.7-30.7 0.4-55.8 1-55.8 1.4 0 0.4-18.9 0.8-42 0.8-23.1 0-42-0.4-42-0.8 0-0.4-29.6-1-65.7-1.4-45.1-0.5-65.8-1-66-1.8-0.2-0.6-4-1-10.3-1-6 0-10-0.4-10-1 0-0.6-2.6-1-6-1-3.3 0-6-0.5-6-1 0-0.7-5.3-1-14-1-8.6 0-14 0.3-14 1zm160.3 173.7c-10 0.2-16.3 0.6-16.3 1.3 0 0.5-2.6 1-6 1-3.3 0-6 0.4-6 1 0 0.5-1.8 1-4 1-2.2 0-4 0.4-4 1 0 0.5-0.9 1-2 1-1.6 0-2 0.6-2 3.5 0 2.8-0.3 3.5-2 3.5-1.6 0-2 0.6-2 4 0 3.3-0.3 4-2 4-1.8 0-2 0.6-2 10 0 9.3 0.2 10 2 10 1.7 0 2 0.6 2 3.5 0 2.8 0.4 3.5 2 3.5 1.5 0 2 0.6 2 2.5 0 1.8 0.6 2.5 2 2.5 1.1 0 2.1 0.4 2.3 1 0.1 0.7 7.6 1.3 20 1.8 10.9 0.3 19.7 1 19.7 1.4 0 0.4 25.2 0.8 56 0.8 30.8 0 56-0.4 56-0.8 0-0.4 5.3-1.1 11.8-1.5 6.5-0.4 11.8-1.1 12-1.7 0.1-0.6 1.1-1 2.2-1 1.1 0 2-0.5 2-1 0-0.6 1.8-1 4-1 2.2 0 4-0.5 4-1 0-0.6 0.9-1 2-1 1.5 0 2-0.7 2-2.5 0-1.9 0.6-2.5 2-2.5 1.1 0 2-0.5 2-1 0-0.6 0.9-1 2-1 1.1 0 2-0.7 2-1.5 0-0.9 0.9-1.5 2-1.5q2 0 2-2 0-2 2-2c1.9 0 2-0.7 2-9.5 0-8.9-0.1-9.5-2-9.5-1.4 0-2-0.7-2-2.5 0-1.9-0.5-2.5-2-2.5-1.1 0-2-0.5-2-1 0-0.6-0.9-1-2-1-1.1 0-2-0.5-2-1 0-0.6-1.8-1.3-4-1.5-2.2-0.3-4-1-4-1.5 0-0.6-3.3-1-8-1-4.6 0-8-0.5-8-1 0-0.7-5.3-1-14-1-7.7 0-14.1-0.4-14.2-0.9-0.2-0.5-20.7-1-45.8-1.2-25-0.3-52.8-0.3-61.7-0.2z"/></svg>